<?xml version="1.0" encoding="UTF-8"?>
<svg fill="white" width="752pt" height="752pt" version="1.1" viewBox="0 0 752 752" xmlns="http://www.w3.org/2000/svg">
 <g>
  <path d="m390.8 583.93-192.39-148.73h-44.398v-118.39h47.359l189.43-148zm-207.19-178.33h24.418l153.18 118.39v-294.95l-149.77 117.36h-27.824z"/>
  <path d="m502.54 551.23-16.723-24.418s75.477-52.391 81.84-133.2c4.4414-55.352-23.68-112.33-83.766-169.45l20.422-21.461c66.898 63.637 98.125 128.9 93.684 193.58-8.582 95.012-91.902 152.58-95.457 154.95z"/>
  <path d="m458.14 497.06-16.723-24.566 8.2891 12.285-8.2891-12.285s48.395-33.742 52.391-85.098c2.9609-35.371-14.801-72.074-54.312-108.92l20.422-20.867c45.73 43.512 67.043 88.797 63.488 133.2-5.4766 64.82-62.895 104.48-65.266 106.26z"/>
  <path d="m413.74 442.75-16.723-24.418c12.359-8.8438 20.754-22.18 23.383-37.148-0.59766-19.121-9.7852-36.953-25.012-48.539l20.422-21.461c24.566 23.383 36.109 47.801 34.039 72.516h0.003906c-3.3555 23.832-16.43 45.207-36.113 59.051z"/>
 </g>
</svg>
