<?xml version="1.0" encoding="UTF-8" standalone="no"?>
<svg xmlns:xlink="http://www.w3.org/1999/xlink" height="54.3px" width="56.0px" xmlns="http://www.w3.org/2000/svg">
  <g transform="matrix(1.0, 0.0, 0.0, 1.0, 21.6, 33.15)">
    <use height="55.0" transform="matrix(0.1094, -0.0087, 0.0087, 0.1094, -1.4791, 13.8094)" width="99.3" xlink:href="#sprite0"/>
    <use height="81.25" transform="matrix(0.1098, 0.0043, -0.0043, 0.1098, 8.0225, 6.3043)" width="84.35" xlink:href="#sprite1"/>
    <use height="69.8" id="rightHand" transform="matrix(0.11, 0.0, 0.0, 0.11, -15.0174, 3.4625)" width="89.4" xlink:href="#sprite2"/>
    <use height="250.6" id="ears" transform="matrix(0.1098, 0.0043, -0.0043, 0.1098, -10.0368, -33.0332)" width="301.85" xlink:href="#sprite3"/>
    <use height="348.1" transform="matrix(0.1098, 0.0043, -0.0043, 0.1098, -15.0621, -21.6079)" width="295.25" xlink:href="#sprite4"/>
    <use height="158.65" transform="matrix(0.1098, 0.0043, -0.0043, 0.1098, -14.2505, -9.5256)" width="238.8" xlink:href="#sprite5"/>
    <use height="151.45" id="eyes" transform="matrix(0.1098, 0.0043, -0.0043, 0.1098, -14.522, -14.9844)" width="172.75" xlink:href="#sprite6"/>
    <use height="170.9" id="hat" transform="matrix(0.1098, 0.0043, -0.0043, 0.1098, -20.85, -20.2)" width="344.8" xlink:href="#sprite7"/>
    <use height="55.0" transform="matrix(0.1097, 0.0058, -0.0058, 0.1097, -6.9024, 12.2562)" width="99.3" xlink:href="#sprite8"/>
    <use height="283.6" id="leftHand" transform="matrix(0.11, 0.0, 0.0, 0.11, -0.4873, -14.795)" width="288.1" xlink:href="#sprite9"/>
  </g>
  <defs>
    <g id="sprite0" transform="matrix(1.0, 0.0, 0.0, 1.0, -10.1, -1.8)">
      <use height="55.0" transform="matrix(1.0, 0.0, 0.0, 1.0, 10.1, 1.8)" width="99.3" xlink:href="#shape0"/>
    </g>
    <g id="shape0" transform="matrix(1.0, 0.0, 0.0, 1.0, -10.1, -1.8)">
      <path d="M109.2 40.85 Q110.65 51.0 102.7 52.4 L64.45 52.4 Q59.55 56.8 52.7 56.8 45.85 56.8 40.9 52.4 L39.9 52.4 Q35.45 55.8 30.5 56.45 26.4 54.25 24.05 52.1 L22.6 50.5 17.35 53.3 Q14.25 52.1 12.25 49.45 9.75 45.5 10.15 39.85 10.5 34.3 13.5 30.35 L13.8 30.0 Q19.8 14.3 39.7 5.1 L40.1 4.95 Q44.55 3.6 49.45 2.85 79.8 -1.85 97.65 14.8 L98.7 15.85 Q107.65 23.9 109.0 39.5 L109.2 40.85 M70.35 37.95 L70.4 39.3 Q70.4 43.05 69.05 46.2 L91.65 46.2 Q103.25 45.35 101.05 36.6 99.35 25.5 89.35 16.5 75.65 6.3 53.6 9.5 49.1 10.15 45.0 11.45 L43.75 11.85 Q40.9 12.75 38.25 14.0 27.85 19.55 23.75 26.85 27.35 23.8 32.0 23.8 36.7 23.8 40.25 26.85 45.4 21.8 52.7 21.8 60.05 21.8 65.2 26.95 69.9 31.6 70.35 37.95 M37.1 31.0 L37.15 30.9 37.1 30.85 Q34.5 28.65 31.1 28.65 28.65 28.65 26.65 29.8 25.4 30.5 24.3 31.65 L23.7 32.4 22.9 33.6 Q21.7 35.55 21.55 38.0 L21.5 38.85 21.6 40.15 Q21.8 42.15 22.7 43.9 L23.5 45.15 24.3 46.1 Q25.4 47.3 26.75 48.05 28.7 49.1 31.1 49.1 34.35 49.1 36.8 47.2 L36.35 46.2 Q35.0 43.0 35.0 39.3 L35.05 38.0 Q35.3 34.2 37.1 31.0 M19.45 31.7 Q17.2 31.7 15.5 33.85 13.8 35.95 13.6 39.0 13.45 42.05 14.85 44.2 16.3 46.3 18.5 46.3 L19.2 46.25 Q18.0 43.25 18.0 39.7 18.0 35.3 19.85 31.75 L19.45 31.7 M60.15 30.65 Q56.6 27.15 51.55 27.15 46.75 27.15 43.3 30.35 L42.95 30.65 Q40.95 32.65 40.1 35.15 L40.0 35.35 Q39.55 36.6 39.45 38.0 L39.4 39.15 Q39.4 41.15 40.0 42.95 L40.15 43.4 Q40.7 44.9 41.7 46.2 L42.95 47.65 43.75 48.4 Q47.05 51.15 51.55 51.15 56.6 51.15 60.15 47.65 L61.45 46.2 Q63.7 43.15 63.7 39.15 L63.65 38.0 Q63.3 33.8 60.15 30.65" fill="#9398b3" fill-rule="evenodd" stroke="none"/>
      <path d="M38.25 14.0 Q40.9 12.75 43.75 11.85 L45.0 11.45 Q49.1 10.15 53.6 9.5 75.65 6.3 89.35 16.5 99.35 25.5 101.05 36.6 103.25 45.35 91.65 46.2 L69.05 46.2 Q70.4 43.05 70.4 39.3 L70.35 37.95 Q77.25 37.3 75.1 30.4 72.8 24.05 67.8 19.2 58.3 10.85 42.1 13.2 L38.25 14.0" fill="#cfd4d4" fill-rule="evenodd" stroke="none"/>
      <path d="M70.35 37.95 Q69.9 31.6 65.2 26.95 60.05 21.8 52.7 21.8 45.4 21.8 40.25 26.85 36.7 23.8 32.0 23.8 27.35 23.8 23.75 26.85 27.85 19.55 38.25 14.0 L42.1 13.2 Q58.3 10.85 67.8 19.2 72.8 24.05 75.1 30.4 77.25 37.3 70.35 37.95 M60.15 30.65 Q63.3 33.8 63.65 38.0 L63.7 39.15 Q63.7 43.15 61.45 46.2 L60.15 47.65 Q56.6 51.15 51.55 51.15 47.05 51.15 43.75 48.4 L42.95 47.65 41.7 46.2 Q40.7 44.9 40.15 43.4 L40.0 42.95 Q39.4 41.15 39.4 39.15 L39.45 38.0 Q39.55 36.6 40.0 35.35 L40.1 35.15 Q40.95 32.65 42.95 30.65 L43.3 30.35 Q46.75 27.15 51.55 27.15 56.6 27.15 60.15 30.65 M19.45 31.7 L19.85 31.75 Q18.0 35.3 18.0 39.7 18.0 43.25 19.2 46.25 L18.5 46.3 Q16.3 46.3 14.85 44.2 13.45 42.05 13.6 39.0 13.8 35.95 15.5 33.85 17.2 31.7 19.45 31.7 M37.1 31.0 Q35.3 34.2 35.05 38.0 L35.0 39.3 Q35.0 43.0 36.35 46.2 L36.8 47.2 Q34.35 49.1 31.1 49.1 28.7 49.1 26.75 48.05 25.4 47.3 24.3 46.1 L23.5 45.15 22.7 43.9 Q21.8 42.15 21.6 40.15 L21.5 38.85 21.55 38.0 Q21.7 35.55 22.9 33.6 L23.7 32.4 24.3 31.65 Q25.4 30.5 26.65 29.8 28.65 28.65 31.1 28.65 34.5 28.65 37.1 30.85 L37.15 30.9 37.1 31.0" fill="#fff0de" fill-rule="evenodd" stroke="none"/>
    </g>
    <g id="sprite1" transform="matrix(1.0, 0.0, 0.0, 1.0, 11.35, 15.9)">
      <use height="81.25" transform="matrix(1.0, 0.0, 0.0, 1.0, -11.35, -15.9)" width="84.35" xlink:href="#shape1"/>
    </g>
    <g id="shape1" transform="matrix(1.0, 0.0, 0.0, 1.0, 11.35, 15.9)">
      <path d="M39.3 -9.9 Q26.2 -14.7 13.45 -8.85 0.8 -3.0 -4.05 10.05 -8.9 23.25 -3.05 35.9 2.85 48.6 15.95 53.45 24.45 56.6 32.65 55.25 43.1 56.55 49.65 53.5 L45.15 50.7 46.75 49.85 Q62.5 40.9 65.0 22.1 L64.65 22.05 61.35 24.35 Q62.1 15.9 58.3 7.65 52.4 -5.0 39.3 -9.9 M42.9 -13.3 Q58.55 -7.5 65.55 7.65 66.55 9.75 67.2 11.8 70.25 8.85 72.15 5.95 76.45 34.6 59.25 52.6 L65.4 55.0 Q51.0 67.7 28.45 64.85 21.8 64.65 15.05 62.2 -0.55 56.45 -7.55 41.3 -14.55 26.2 -8.7 10.55 -3.0 -5.05 12.2 -12.05 27.3 -19.05 42.9 -13.3" fill="#6b7187" fill-rule="evenodd" stroke="none"/>
      <path d="M39.3 -9.9 Q52.4 -5.0 58.3 7.65 62.1 15.9 61.35 24.35 L64.65 22.05 65.0 22.1 Q62.5 40.9 46.75 49.85 L45.15 50.7 49.65 53.5 Q43.1 56.55 32.65 55.25 24.45 56.6 15.95 53.45 2.85 48.6 -3.05 35.9 -8.9 23.25 -4.05 10.05 0.8 -3.0 13.45 -8.85 26.2 -14.7 39.3 -9.9 M54.15 32.0 Q58.05 25.25 56.6 16.85 55.2 8.55 49.35 3.45 43.45 -1.55 36.6 -0.3 29.7 0.85 25.8 7.6 21.95 14.3 23.45 22.65 24.8 31.05 30.7 36.05 36.55 41.2 43.4 40.0 50.25 38.8 54.15 32.0" fill="#ced4d4" fill-rule="evenodd" stroke="none"/>
      <path d="M54.15 32.0 Q50.25 38.8 43.4 40.0 36.55 41.2 30.7 36.05 24.8 31.05 23.45 22.65 21.95 14.3 25.8 7.6 29.7 0.85 36.6 -0.3 43.45 -1.55 49.35 3.45 55.2 8.55 56.6 16.85 58.05 25.25 54.15 32.0" fill="#feefdd" fill-rule="evenodd" stroke="none"/>
    </g>
    <g id="sprite2" transform="matrix(1.0, 0.0, 0.0, 1.0, 9.25, 1.25)">
      <use height="69.8" transform="matrix(1.0, 0.0, 0.0, 1.0, -9.25, -1.25)" width="89.4" xlink:href="#shape2"/>
    </g>
    <g id="shape2" transform="matrix(1.0, 0.0, 0.0, 1.0, 9.25, 1.25)">
      <path d="M34.15 60.1 Q43.5 59.25 50.35 52.3 58.05 44.5 58.05 33.5 58.05 22.45 50.35 14.65 42.6 6.85 31.55 6.85 L25.05 7.7 24.9 7.75 24.45 7.8 24.65 7.75 Q32.65 5.3 38.6 5.05 L43.2 5.1 Q53.8 5.75 62.0 12.05 71.85 19.75 72.35 31.25 72.85 42.7 63.7 51.2 54.55 59.75 41.05 60.35 L36.7 60.35 34.15 60.1" fill="#cfd4d4" fill-rule="evenodd" stroke="none"/>
      <path d="M24.45 7.8 L24.9 7.75 25.05 7.7 31.55 6.85 Q42.6 6.85 50.35 14.65 58.05 22.45 58.05 33.5 58.05 44.5 50.35 52.3 43.5 59.25 34.15 60.1 29.4 59.5 25.15 57.7 L22.75 58.75 20.95 59.4 Q17.95 60.4 15.65 60.5 12.15 60.6 10.15 58.75 8.1 56.85 8.15 53.7 8.15 51.55 9.1 48.85 L9.15 48.65 9.4 48.1 10.6 45.5 Q12.5 41.8 15.75 38.2 12.35 39.6 8.95 40.2 L8.3 40.3 8.3 40.25 8.25 40.3 6.0 40.55 1.5 40.05 Q-0.7 39.35 -2.05 37.75 -5.35 33.95 -2.25 27.25 0.2 22.0 5.45 17.45 L8.55 14.9 Q16.2 9.2 23.95 7.85 L24.45 7.8" fill="#fff0de" fill-rule="evenodd" stroke="none"/>
      <path d="M34.15 60.1 L36.7 60.35 41.05 60.35 Q54.55 59.75 63.7 51.2 72.85 42.7 72.35 31.25 71.85 19.75 62.0 12.05 53.8 5.75 43.2 5.1 L38.6 5.05 Q32.65 5.3 24.65 7.75 L24.45 7.8 23.95 7.85 Q16.2 9.2 8.55 14.9 L5.45 17.45 Q0.2 22.0 -2.25 27.25 -5.35 33.95 -2.05 37.75 -0.7 39.35 1.5 40.05 L6.0 40.55 8.25 40.3 8.3 40.3 8.95 40.2 Q12.35 39.6 15.75 38.2 12.5 41.8 10.6 45.5 L9.4 48.1 9.15 48.65 9.1 48.85 Q8.15 51.55 8.15 53.7 8.1 56.85 10.15 58.75 12.15 60.6 15.65 60.5 17.95 60.4 20.95 59.4 L22.75 58.75 25.15 57.7 Q29.4 59.5 34.15 60.1 M80.1 31.55 Q80.75 45.85 69.55 56.45 58.4 67.0 42.0 67.7 33.95 68.05 27.0 66.0 L22.75 67.45 Q12.25 70.4 6.7 65.4 1.15 60.35 3.85 50.2 L4.25 48.85 Q-2.35 48.3 -6.1 44.0 -11.35 37.9 -7.8 27.95 -4.25 18.0 6.0 10.0 16.25 1.95 27.2 0.6 L28.35 0.5 Q33.35 -0.95 39.0 -1.2 55.4 -1.9 67.45 7.7 79.5 17.3 80.1 31.55" fill="#818698" fill-rule="evenodd" stroke="none"/>
    </g>
    <g id="sprite3" transform="matrix(1.0, 0.0, 0.0, 1.0, -68.05, 181.45)">
      <use height="250.6" transform="matrix(1.0, 0.0, 0.0, 1.0, 68.05, -181.45)" width="301.85" xlink:href="#shape3"/>
    </g>
    <g id="shape3" transform="matrix(1.0, 0.0, 0.0, 1.0, -68.05, 181.45)">
      <path d="M113.55 58.1 Q119.2 57.95 119.1 48.25 119.9 -11.95 143.65 -73.45 157.8 -105.75 164.85 -134.0 167.15 -156.15 153.45 -168.15 149.85 -171.35 145.95 -172.95 137.95 -176.5 128.55 -173.65 107.75 -165.9 95.85 -143.95 83.05 -118.45 78.25 -92.15 68.55 -38.2 74.95 10.55 78.3 29.55 90.0 43.0 106.4 58.3 113.55 58.1 M158.35 -173.75 Q174.45 -161.3 172.45 -137.85 165.1 -107.8 149.5 -73.3 123.6 -7.75 124.35 55.9 125.15 79.3 90.45 50.95 76.45 36.95 72.1 16.95 63.45 -34.5 73.2 -91.75 77.95 -119.75 92.15 -146.9 105.4 -170.5 129.3 -179.05 145.2 -183.8 158.35 -173.75 M118.55 -101.65 Q118.4 -106.5 117.05 -109.65 113.8 -114.4 108.35 -112.2 100.85 -109.2 97.35 -99.6 93.3 -90.2 90.25 -74.35 83.8 -44.8 84.9 -14.55 86.3 27.0 94.65 23.8 L94.7 23.8 Q98.95 22.05 99.55 17.2 105.15 -36.75 117.6 -90.1 118.6 -96.75 118.55 -101.65 M109.5 -118.65 L109.45 -118.65 Q117.35 -121.95 122.35 -115.6 L122.55 -115.2 Q125.85 -108.6 123.5 -93.3 L123.55 -93.15 Q109.3 -36.5 103.2 20.55 102.55 27.0 96.0 29.6 L95.95 29.65 Q92.15 31.25 89.15 28.1 86.9 25.85 85.2 20.2 82.1 9.95 81.0 -12.45 79.35 -44.65 86.8 -76.25 L86.8 -76.2 Q90.35 -93.35 95.05 -103.65 99.6 -115.05 109.5 -118.65 M280.5 -111.05 Q287.6 -121.75 298.55 -123.4 L298.5 -123.4 Q307.35 -125.1 311.1 -117.45 L311.3 -117.05 Q313.25 -109.5 307.6 -94.3 L307.55 -94.1 Q301.7 -82.05 296.25 -69.85 289.5 -54.75 283.35 -39.5 271.75 -10.75 262.3 18.55 260.25 25.05 252.95 26.35 L252.9 26.35 Q248.7 27.2 246.25 23.35 244.4 20.55 243.85 14.35 242.9 3.15 246.55 -20.15 248.0 -29.6 250.25 -38.9 253.9 -54.35 259.65 -69.2 262.6 -76.95 266.15 -84.55 L266.15 -84.5 Q273.45 -101.4 280.45 -111.0 L280.5 -111.05 M304.25 -103.95 Q305.15 -108.95 304.4 -112.45 302.1 -118.05 296.05 -117.0 287.65 -115.5 281.95 -106.35 275.8 -97.55 269.3 -81.85 266.5 -75.65 264.1 -69.3 258.35 -54.45 254.6 -38.95 252.5 -30.35 251.0 -21.5 243.55 21.6 252.8 20.1 L252.85 20.1 Q257.65 19.2 259.25 14.35 267.9 -12.8 278.3 -39.4 284.25 -54.7 290.75 -69.75 295.6 -81.05 300.8 -92.25 303.3 -98.9 304.25 -103.95 M347.75 -171.5 Q340.2 -176.85 329.95 -175.9 306.9 -172.4 289.9 -152.3 271.3 -128.8 260.75 -102.75 253.95 -85.8 248.9 -69.0 244.3 -53.8 241.2 -38.7 236.9 -18.1 235.35 2.25 234.75 22.5 243.95 38.85 257.55 58.1 264.95 59.45 270.8 60.5 272.8 50.45 283.0 4.25 306.6 -39.9 314.55 -54.85 324.05 -69.55 L324.65 -70.35 Q345.75 -100.15 358.85 -127.35 365.95 -149.65 354.4 -164.95 351.4 -168.95 347.75 -171.5 M286.75 -156.2 Q305.45 -177.6 331.85 -181.3 349.25 -182.8 360.6 -169.65 374.6 -153.4 367.5 -129.65 353.95 -101.4 331.75 -70.5 L330.05 -68.15 Q320.9 -54.2 313.15 -40.0 286.45 8.6 276.55 59.5 272.35 83.75 242.7 47.15 231.3 29.75 231.05 8.2 231.95 -15.05 236.5 -38.65 239.35 -53.7 243.75 -68.9 248.65 -86.1 255.45 -103.45 266.35 -131.2 286.75 -156.2" fill="#6b7187" fill-rule="evenodd" stroke="none"/>
      <path d="M113.55 58.1 Q106.4 58.3 90.0 43.0 78.3 29.55 74.95 10.55 68.55 -38.2 78.25 -92.15 83.05 -118.45 95.85 -143.95 107.75 -165.9 128.55 -173.65 137.95 -176.5 145.95 -172.95 161.15 -158.4 156.75 -136.9 151.8 -113.75 134.9 -67.75 117.95 -21.85 113.55 58.1 M280.5 -111.05 L280.45 -111.0 Q273.45 -101.4 266.15 -84.5 L266.15 -84.55 Q262.6 -76.95 259.65 -69.2 253.9 -54.35 250.25 -38.9 248.0 -29.6 246.55 -20.15 242.9 3.15 243.85 14.35 244.4 20.55 246.25 23.35 248.7 27.2 252.9 26.35 L252.95 26.35 Q260.25 25.05 262.3 18.55 271.75 -10.75 283.35 -39.5 289.5 -54.75 296.25 -69.85 301.7 -82.05 307.55 -94.1 L307.6 -94.3 Q313.25 -109.5 311.3 -117.05 L311.1 -117.45 Q307.35 -125.1 298.5 -123.4 L298.55 -123.4 Q287.6 -121.75 280.5 -111.05 M109.5 -118.65 Q99.6 -115.05 95.05 -103.65 90.35 -93.35 86.8 -76.2 L86.8 -76.25 Q79.35 -44.65 81.0 -12.45 82.1 9.95 85.2 20.2 86.9 25.85 89.15 28.1 92.15 31.25 95.95 29.65 L96.0 29.6 Q102.55 27.0 103.2 20.55 109.3 -36.5 123.55 -93.15 L123.5 -93.3 Q125.85 -108.6 122.55 -115.2 L122.35 -115.6 Q117.35 -121.95 109.45 -118.65 L109.5 -118.65 M264.95 59.45 Q257.55 58.1 243.95 38.85 234.75 22.5 235.35 2.25 236.9 -18.1 241.2 -38.7 244.3 -53.8 248.9 -69.0 253.95 -85.8 260.75 -102.75 271.3 -128.8 289.9 -152.3 306.9 -172.4 329.95 -175.9 340.2 -176.85 347.75 -171.5 360.25 -153.25 351.1 -132.05 341.65 -110.45 316.75 -70.2 L313.85 -65.55 Q306.6 -54.0 299.8 -39.8 280.85 -0.35 264.95 59.45" fill="#feefdd" fill-rule="evenodd" stroke="none"/>
      <path d="M145.95 -172.95 Q149.85 -171.35 153.45 -168.15 167.15 -156.15 164.85 -134.0 157.8 -105.75 143.65 -73.45 119.9 -11.95 119.1 48.25 119.2 57.95 113.55 58.1 117.95 -21.85 134.9 -67.75 151.8 -113.75 156.75 -136.9 161.15 -158.4 145.95 -172.95 M264.95 59.45 Q280.85 -0.35 299.8 -39.8 306.6 -54.0 313.85 -65.55 L316.75 -70.2 Q341.65 -110.45 351.1 -132.05 360.25 -153.25 347.75 -171.5 351.4 -168.95 354.4 -164.95 365.95 -149.65 358.85 -127.35 345.75 -100.15 324.65 -70.35 L324.05 -69.55 Q314.55 -54.85 306.6 -39.9 283.0 4.25 272.8 50.45 270.8 60.5 264.95 59.45" fill="#ced4d4" fill-rule="evenodd" stroke="none"/>
      <path d="M94.65 23.8 Q86.3 27.0 84.9 -14.55 83.8 -44.8 90.25 -74.35 93.3 -90.2 97.35 -99.6 100.85 -109.2 108.35 -112.2 113.8 -114.4 117.05 -109.65 118.4 -106.5 118.55 -101.65 111.4 -103.15 107.2 -90.25 93.2 -48.25 94.65 23.8 M252.8 20.1 Q243.55 21.6 251.0 -21.5 252.5 -30.35 254.6 -38.95 258.35 -54.45 264.1 -69.3 266.5 -75.65 269.3 -81.85 275.8 -97.55 281.95 -106.35 287.65 -115.5 296.05 -117.0 302.1 -118.05 304.4 -112.45 305.15 -108.95 304.25 -103.95 297.2 -107.0 290.1 -94.65 283.6 -83.45 277.8 -69.55 272.05 -55.7 267.0 -39.2 258.95 -12.9 252.8 20.1" fill="#f49bb6" fill-rule="evenodd" stroke="none"/>
      <path d="M118.55 -101.65 Q118.6 -96.75 117.6 -90.1 105.15 -36.75 99.55 17.2 98.95 22.05 94.7 23.8 L94.65 23.8 Q93.2 -48.25 107.2 -90.25 111.4 -103.15 118.55 -101.65 M304.25 -103.95 Q303.3 -98.9 300.8 -92.25 295.6 -81.05 290.75 -69.75 284.25 -54.7 278.3 -39.4 267.9 -12.8 259.25 14.35 257.65 19.2 252.85 20.1 L252.8 20.1 Q258.95 -12.9 267.0 -39.2 272.05 -55.7 277.8 -69.55 283.6 -83.45 290.1 -94.65 297.2 -107.0 304.25 -103.95" fill="#eb5885" fill-rule="evenodd" stroke="none"/>
    </g>
    <g id="sprite4" transform="matrix(1.0, 0.0, 0.0, 1.0, 0.0, 54.7)">
      <use height="348.1" transform="matrix(1.0, 0.0, 0.0, 1.0, 0.0, -54.7)" width="295.25" xlink:href="#shape4"/>
    </g>
    <g id="shape4" transform="matrix(1.0, 0.0, 0.0, 1.0, 0.0, 54.7)">
      <path d="M163.55 8.3 Q187.6 17.7 206.95 40.35 L209.8 43.8 210.4 44.55 217.6 54.15 Q221.05 59.05 224.1 64.2 228.4 70.35 232.2 76.6 L234.6 80.6 Q241.3 92.1 246.55 104.0 249.5 110.65 251.95 117.5 L252.25 118.3 253.8 122.75 Q257.5 133.85 259.95 145.35 261.25 151.25 262.2 157.25 263.4 165.1 264.1 173.15 L251.7 164.65 Q254.95 199.65 237.35 232.7 L230.7 219.75 Q227.55 224.85 223.85 229.75 195.1 267.55 125.35 265.85 55.6 267.55 26.85 229.75 23.6 225.45 20.8 221.0 4.5 187.95 10.2 145.8 12.25 130.1 16.55 115.7 27.9 76.95 55.0 47.65 92.15 7.5 144.65 7.5 L146.8 7.55 148.95 7.5 163.55 8.3" fill="#feefdd" fill-rule="evenodd" stroke="none"/>
      <path d="M20.8 221.0 Q23.6 225.45 26.85 229.75 55.6 267.55 125.35 265.85 195.1 267.55 223.85 229.75 227.55 224.85 230.7 219.75 L237.35 232.7 Q254.95 199.65 251.7 164.65 L264.1 173.15 Q263.4 165.1 262.2 157.25 261.25 151.25 259.95 145.35 257.5 133.85 253.8 122.75 L252.25 118.3 251.95 117.5 Q249.5 110.65 246.55 104.0 241.3 92.1 234.6 80.6 L232.2 76.6 Q228.4 70.35 224.1 64.2 221.05 59.05 217.6 54.15 L210.4 44.55 209.8 43.8 206.95 40.35 Q187.6 17.7 163.55 8.3 206.75 13.2 238.65 47.65 252.5 62.65 262.25 80.1 268.5 91.3 273.05 103.5 L275.7 111.05 277.5 117.05 Q281.45 130.8 283.45 145.8 L284.6 156.85 Q287.95 207.65 257.65 244.35 225.3 283.6 146.8 281.85 68.3 283.6 35.95 244.35 26.85 233.3 20.8 221.0" fill="#ced4d4" fill-rule="evenodd" stroke="none"/>
      <path d="M272.25 79.95 Q278.3 91.15 282.8 103.35 L285.4 110.85 287.25 116.85 Q291.5 131.7 293.65 147.85 L294.65 156.7 Q299.35 212.9 266.1 253.2 231.5 295.15 147.6 293.3 63.65 295.15 29.1 253.2 -6.75 209.75 1.55 147.85 2.75 138.75 4.65 130.1 6.2 122.8 8.3 115.85 20.45 74.3 49.45 42.95 81.25 8.55 123.6 1.7 134.15 0.0 145.3 0.0 L147.6 0.05 149.9 0.0 Q206.05 0.0 245.75 42.95 261.45 59.95 272.25 79.95 M20.8 221.0 Q26.85 233.3 35.95 244.35 68.3 283.6 146.8 281.85 225.3 283.6 257.65 244.35 287.95 207.65 284.6 156.85 L283.45 145.8 Q281.45 130.8 277.5 117.05 L275.7 111.05 273.05 103.5 Q268.5 91.3 262.25 80.1 252.5 62.65 238.65 47.65 206.75 13.2 163.55 8.3 L148.95 7.5 146.8 7.55 144.65 7.5 Q92.15 7.5 55.0 47.65 27.9 76.95 16.55 115.7 12.25 130.1 10.2 145.8 4.5 187.95 20.8 221.0" fill="#6b7187" fill-rule="evenodd" stroke="none"/>
      <path d="M187.55 21.85 L182.3 18.5 Q191.1 17.05 191.85 13.85 192.7 8.25 184.7 6.7 175.1 5.3 165.85 10.6 186.35 -12.9 196.6 -35.7 203.35 -50.75 188.4 -47.95 173.55 -45.25 164.7 -28.35 154.65 -9.25 149.7 9.65 L145.65 5.55 Q148.4 -10.1 150.0 -24.25 151.95 -41.2 142.85 -40.2 133.8 -38.9 128.65 -30.75 123.5 -22.65 123.65 -12.0 124.2 2.5 130.8 13.4 129.2 17.8 127.25 17.6 121.85 6.35 116.45 -0.75 111.1 -7.8 107.1 -4.8 103.1 -1.8 105.45 5.55 107.5 11.85 113.0 18.65 L111.25 20.25 Q104.1 16.05 100.4 7.3 L100.3 7.15 Q96.0 -3.5 104.1 -8.6 L104.15 -8.65 Q106.9 -10.45 109.3 -10.6 114.05 -12.25 118.75 -6.5 118.25 -11.45 118.6 -16.65 119.95 -36.2 136.5 -44.05 L136.7 -44.15 136.75 -44.15 Q145.5 -47.1 149.9 -44.75 154.9 -42.55 154.95 -34.65 154.95 -28.3 154.4 -21.85 161.1 -37.0 170.2 -45.8 L170.3 -45.9 Q180.65 -55.25 192.6 -54.65 199.9 -54.35 202.55 -49.9 L202.55 -49.95 Q205.3 -45.9 203.55 -38.0 L203.5 -37.9 203.45 -37.8 Q197.7 -18.65 180.15 1.15 183.55 1.05 187.8 2.3 197.2 5.05 196.65 13.25 196.7 19.2 187.55 21.85" fill="#6b7187" fill-rule="evenodd" stroke="none"/>
      <path d="M111.25 20.25 L113.0 18.65 Q107.5 11.85 105.45 5.55 103.1 -1.8 107.1 -4.8 111.1 -7.8 116.45 -0.75 121.85 6.35 127.25 17.6 129.2 17.8 130.8 13.4 124.2 2.5 123.65 -12.0 123.5 -22.65 128.65 -30.75 133.8 -38.9 142.85 -40.2 151.95 -41.2 150.0 -24.25 148.4 -10.1 145.65 5.55 L149.7 9.65 Q154.65 -9.25 164.7 -28.35 173.55 -45.25 188.4 -47.95 203.35 -50.75 196.6 -35.7 186.35 -12.9 165.85 10.6 175.1 5.3 184.7 6.7 192.7 8.25 191.85 13.85 191.1 17.05 182.3 18.5 L187.55 21.85 185.1 22.5 185.0 22.5 Q144.75 29.15 112.85 21.05 L112.45 20.9 111.25 20.25" fill="#feefdd" fill-rule="evenodd" stroke="none"/>
    </g>
    <g id="sprite5" transform="matrix(1.0, 0.0, 0.0, 1.0, -4.1, 57.3)">
      <use height="158.65" transform="matrix(1.0, 0.0, 0.0, 1.0, 4.1, -57.3)" width="238.8" xlink:href="#shape5"/>
    </g>
    <g id="shape5" transform="matrix(1.0, 0.0, 0.0, 1.0, -4.1, 57.3)">
      <path d="M159.75 -39.6 Q164.6 -51.5 171.15 -55.55 177.75 -59.6 177.05 -54.25 176.25 -49.0 177.05 -43.75 196.4 -54.7 215.05 -50.25 225.65 -47.5 226.05 -43.85 221.55 -43.65 219.55 -42.45 240.8 -33.3 232.8 -29.1 242.65 -23.05 242.9 -16.5 236.55 -24.45 227.25 -27.9 233.1 -35.35 214.0 -40.75 L213.2 -42.85 Q216.4 -44.0 217.7 -45.35 218.7 -46.4 214.5 -47.65 191.05 -51.8 174.55 -37.5 172.5 -43.05 173.45 -49.05 174.45 -55.1 169.95 -50.7 168.4 -49.25 166.25 -44.9 158.25 -28.6 158.65 -10.7 L157.05 -8.45 Q154.85 -27.75 159.75 -39.6 M24.65 59.95 Q18.55 58.9 13.95 53.95 8.15 47.7 8.15 38.8 8.15 35.4 9.0 32.4 6.15 32.45 5.05 31.75 2.95 29.25 5.55 27.7 11.15 24.3 16.8 26.7 L15.55 28.45 Q12.25 27.7 9.3 28.45 13.95 30.3 15.2 32.5 L11.05 32.4 Q10.55 34.65 10.45 37.15 10.25 45.35 15.3 51.3 20.3 57.25 27.6 57.45 34.75 57.7 40.35 51.85 38.85 46.65 39.0 41.0 L43.85 41.0 Q42.45 46.95 43.15 51.65 L45.95 53.95 Q67.4 71.8 102.8 71.8 138.15 71.8 166.75 53.95 195.35 36.1 200.4 10.85 203.85 -6.2 195.2 -19.9 196.05 -15.75 192.35 -15.65 185.05 -16.6 176.9 -25.2 174.65 -27.8 178.7 -28.1 188.1 -28.6 198.85 -23.65 204.0 -21.05 197.4 -20.05 207.8 -5.05 204.0 14.0 198.7 40.3 169.35 58.85 140.0 77.45 103.8 77.45 91.7 77.45 81.2 75.4 L77.55 74.6 Q58.95 70.15 45.65 58.85 L43.7 57.15 41.25 54.85 40.2 55.8 Q34.95 60.25 28.05 60.25 L27.75 60.25 25.65 60.1 24.65 59.95" fill="#3e414a" fill-rule="evenodd" stroke="none"/>
      <path d="M24.65 59.95 L25.65 60.1 27.75 60.25 Q31.7 76.8 38.35 92.45 45.6 96.4 52.5 97.45 44.3 79.65 40.2 55.8 L41.25 54.85 43.7 57.15 Q47.5 77.6 56.05 97.75 65.5 98.9 75.3 97.3 77.65 85.7 77.55 74.6 L81.2 75.4 Q80.1 88.75 77.85 99.85 49.35 104.6 36.45 94.5 29.65 79.15 24.65 59.95" fill="#556a77" fill-rule="evenodd" stroke="none"/>
      <path d="M27.75 60.25 L28.05 60.25 Q34.95 60.25 40.2 55.8 44.3 79.65 52.5 97.45 45.6 96.4 38.35 92.45 31.7 76.8 27.75 60.25 M43.7 57.15 L45.65 58.85 Q58.95 70.15 77.55 74.6 77.65 85.7 75.3 97.3 65.5 98.9 56.05 97.75 47.5 77.6 43.7 57.15" fill="#ffffff" fill-rule="evenodd" stroke="none"/>
    </g>
    <g id="sprite6" transform="matrix(1.0, 0.0, 0.0, 1.0, 7.7, 51.45)">
      <use height="139.15" transform="matrix(1.0, 0.0, 0.0, 1.0, -4.8, -39.15)" width="165.1" xlink:href="#shape6"/>
    </g>
    <g id="shape6" transform="matrix(1.0, 0.0, 0.0, 1.0, 4.8, 39.15)">
      <path d="M150.9 24.8 L152.0 31.05 Q154.3 51.25 141.5 68.25 128.7 85.25 108.3 89.05 87.9 92.85 71.75 81.3 68.9 79.25 66.5 76.95 66.5 73.85 64.9 70.45 L60.7 70.1 Q55.5 62.45 53.75 52.7 L76.95 46.05 Q77.2 50.4 79.15 53.8 81.7 58.2 85.4 58.35 89.2 58.55 92.05 54.4 95.0 50.3 95.25 44.35 L95.15 40.8 150.9 24.8 M19.45 74.95 L16.8 74.75 Q7.05 73.45 2.3 61.8 -2.45 50.25 0.55 35.2 1.3 31.4 2.45 27.95 L16.2 35.95 Q15.2 38.25 14.9 41.1 14.3 45.8 15.9 49.3 17.4 52.85 20.05 53.15 22.75 53.5 25.0 50.4 27.25 47.4 27.85 42.75 L44.35 52.4 Q41.05 60.5 35.5 66.5 L32.65 69.3 Q19.65 70.1 19.25 74.3 L19.45 74.95 M24.85 79.5 Q24.1 77.7 23.65 75.85 23.9 72.9 36.2 73.15 L47.7 73.85 Q52.35 83.65 31.5 89.4 27.0 84.85 24.85 79.5" fill="#ffffff" fill-rule="evenodd" stroke="none"/>
      <path d="M33.3 -31.0 Q36.3 -32.8 40.75 -30.85 45.25 -28.85 48.65 -24.25 52.0 -19.6 52.25 -15.0 52.4 -10.45 49.45 -8.6 46.45 -6.85 41.95 -8.8 37.5 -10.85 34.1 -15.45 30.7 -20.1 30.55 -24.7 30.3 -29.25 33.3 -31.0 M75.25 -33.45 Q81.25 -38.2 87.3 -39.0 93.45 -39.75 96.0 -36.25 98.6 -32.6 96.2 -26.8 95.3 -24.4 93.8 -22.2 91.5 -19.0 87.95 -16.1 83.2 -12.35 78.4 -11.1 L75.85 -10.55 Q69.8 -9.75 67.15 -13.35 64.6 -16.85 66.9 -22.7 69.25 -28.55 75.25 -33.45 M20.25 31.05 L27.3 35.6 Q28.3 38.7 27.85 42.6 L27.85 42.75 Q27.25 47.4 25.0 50.4 22.75 53.5 20.05 53.15 17.4 52.85 15.9 49.3 14.3 45.8 14.9 41.1 15.2 38.25 16.2 35.95 16.8 34.55 17.7 33.35 18.9 31.7 20.25 31.05 M77.6 38.8 L92.7 33.5 93.0 34.0 Q94.75 37.0 95.15 40.8 L95.25 44.35 Q95.0 50.3 92.05 54.4 89.2 58.55 85.4 58.35 81.7 58.2 79.15 53.8 77.2 50.4 76.95 46.05 L76.95 43.45 Q77.05 40.95 77.6 38.8" fill="#181823" fill-rule="evenodd" stroke="none"/>
      <path d="M65.0 82.8 Q59.5 92.95 34.1 100.0 25.2 90.9 21.1 80.1 20.1 77.55 19.45 74.95 L19.25 74.3 Q19.65 70.1 32.65 69.3 L40.3 69.1 54.55 69.65 60.7 70.1 64.9 70.45 Q66.5 73.85 66.5 76.95 66.5 80.0 65.0 82.8 M24.85 79.5 Q27.0 84.85 31.5 89.4 52.35 83.65 47.7 73.85 L36.2 73.15 Q23.9 72.9 23.65 75.85 24.1 77.7 24.85 79.5" fill="#222222" fill-rule="evenodd" stroke="none"/>
      <path d="M133.6 -0.75 Q137.05 1.75 139.85 4.6 L53.05 40.7 53.05 40.65 Q53.25 36.45 54.2 32.5 56.6 21.9 63.85 12.3 76.7 -4.75 97.05 -8.55 117.55 -12.35 133.6 -0.75 M47.7 40.65 Q28.15 27.6 10.5 12.9 L12.6 10.45 Q21.55 0.85 31.3 2.2 41.05 3.65 45.7 15.2 50.25 26.35 47.7 40.65" fill="#feefdd" fill-rule="evenodd" stroke="none"/>
      <path d="M1.7 19.05 L0.2 18.1 2.1 5.7 7.35 10.25 10.6 6.55 Q21.35 -4.35 33.05 -2.7 44.75 -1.05 50.55 12.15 52.55 16.7 53.5 21.75 56.3 15.6 60.7 9.8 67.9 0.35 77.2 -5.45 87.25 -11.3 97.7 -13.25 L97.8 -13.3 97.85 -13.35 Q120.7 -17.6 138.6 -4.75 142.9 -1.7 146.3 1.95 L154.3 -1.4 160.3 12.65 154.75 14.2 153.55 14.55 147.85 16.15 Q119.8 24.15 92.7 33.5 L77.6 38.8 Q65.3 43.25 53.15 48.0 L49.0 49.6 46.0 47.7 27.3 35.6 20.25 31.05 5.2 21.3 1.7 19.05 M133.6 -0.75 Q117.55 -12.35 97.05 -8.55 76.7 -4.75 63.85 12.3 56.6 21.9 54.2 32.5 53.25 36.45 53.05 40.65 L53.05 40.7 139.85 4.6 Q137.05 1.75 133.6 -0.75 M47.7 40.65 Q50.25 26.35 45.7 15.2 41.05 3.65 31.3 2.2 21.55 0.85 12.6 10.45 L10.5 12.9 Q28.15 27.6 47.7 40.65" fill="#545867" fill-rule="evenodd" stroke="none"/>
      <path d="M1.7 19.05 L5.2 21.3 Q3.6 24.45 2.45 27.95 1.3 31.4 0.55 35.2 -2.45 50.25 2.3 61.8 7.05 73.45 16.8 74.75 L19.45 74.95 Q20.1 77.55 21.1 80.1 L16.4 79.9 Q4.7 78.25 -1.1 65.0 -2.35 62.2 -3.15 59.2 -6.25 48.1 -3.55 34.6 -2.6 30.0 -1.15 25.85 0.1 22.25 1.7 19.05 M46.0 47.7 L49.0 49.6 53.15 48.0 53.3 49.55 53.75 52.7 Q55.5 62.45 60.7 70.1 L54.55 69.65 Q50.85 62.75 49.4 54.45 45.95 62.75 40.3 69.1 L32.65 69.3 35.5 66.5 Q41.05 60.5 44.35 52.4 L46.0 47.7 M147.85 16.15 L153.55 14.55 154.75 14.2 156.35 18.1 157.85 22.8 Q158.8 26.5 159.25 30.5 161.75 52.95 147.45 71.8 133.15 90.7 110.3 94.95 87.5 99.2 69.5 86.4 L65.0 82.8 Q66.5 80.0 66.5 76.95 68.9 79.25 71.75 81.3 87.9 92.85 108.3 89.05 128.7 85.25 141.5 68.25 154.3 51.25 152.0 31.05 L150.9 24.8 Q149.8 20.2 147.85 16.15" fill="#6b7187" fill-rule="evenodd" stroke="none"/>
      <path d="M5.2 21.3 L20.25 31.05 Q18.9 31.7 17.7 33.35 16.8 34.55 16.2 35.95 L2.45 27.95 Q3.6 24.45 5.2 21.3 M27.3 35.6 L46.0 47.7 44.35 52.4 27.85 42.75 27.85 42.6 Q28.3 38.7 27.3 35.6 M53.15 48.0 Q65.3 43.25 77.6 38.8 77.05 40.95 76.95 43.45 L76.95 46.05 53.75 52.7 53.3 49.55 53.15 48.0 M92.7 33.5 Q119.8 24.15 147.85 16.15 149.8 20.2 150.9 24.8 L95.15 40.8 Q94.75 37.0 93.0 34.0 L92.7 33.5" fill="#e6e6e6" fill-rule="evenodd" stroke="none"/>
    </g>
    <g id="sprite7" transform="matrix(1.0, 0.0, 0.0, 1.0, 0.0, 0.0)">
      <use height="170.9" transform="matrix(1.0, 0.0, 0.0, 1.0, 0.0, 0.0)" width="344.8" xlink:href="#shape7"/>
    </g>
    <g id="shape7" transform="matrix(1.0, 0.0, 0.0, 1.0, 0.0, 0.0)">
      <path d="M123.4 24.35 L124.05 23.7 Q153.25 -5.15 212.9 1.1 229.0 1.65 243.3 3.9 291.2 11.55 319.05 38.75 346.25 66.5 343.7 159.4 345.1 162.5 344.7 165.6 344.35 168.4 342.5 170.9 L340.55 162.35 330.85 155.7 Q320.9 147.85 294.15 139.25 L288.25 137.4 Q245.65 124.4 185.75 116.9 129.75 109.8 81.0 107.9 L67.05 107.45 Q46.45 106.95 33.8 108.4 25.05 109.4 20.1 111.4 14.45 113.6 13.7 117.0 13.5 117.8 13.6 118.65 14.85 131.15 61.75 148.6 L59.25 156.8 52.55 154.05 Q1.35 132.55 0.05 115.8 -0.05 114.4 0.25 113.1 0.55 87.5 39.15 84.8 L93.6 82.45 Q94.5 60.85 109.95 39.85 110.3 46.6 111.45 53.25 102.95 67.6 101.35 81.6 100.7 87.2 101.2 92.8 L92.6 91.75 Q72.95 89.75 47.4 90.9 15.95 92.35 13.1 103.35 L13.8 103.15 Q28.05 98.9 57.05 98.75 71.65 98.65 86.95 99.15 132.5 100.5 183.75 106.65 245.1 113.95 289.55 128.7 L299.4 132.15 Q325.0 141.55 336.15 150.55 L336.5 150.8 336.45 148.35 Q335.8 63.9 309.7 42.05 290.3 27.8 267.05 19.8 240.85 10.75 209.75 9.5 154.8 3.95 131.0 28.35 126.9 32.55 123.35 36.75 123.0 30.75 123.4 24.35" fill="#8e1313" fill-rule="evenodd" stroke="none"/>
      <path d="M267.05 19.8 Q290.3 27.8 309.7 42.05 335.8 63.9 336.45 148.35 L336.5 150.8 336.15 150.55 Q325.0 141.55 299.4 132.15 L289.55 128.7 Q299.55 52.4 267.05 19.8" fill="#a51616" fill-rule="evenodd" stroke="none"/>
      <path d="M123.35 36.75 Q126.9 32.55 131.0 28.35 154.8 3.95 209.75 9.5 240.85 10.75 267.05 19.8 299.55 52.4 289.55 128.7 245.1 113.95 183.75 106.65 132.5 100.5 86.95 99.15 71.65 98.65 57.05 98.75 28.05 98.9 13.8 103.15 L13.1 103.35 Q15.95 92.35 47.4 90.9 72.95 89.75 92.6 91.75 L101.2 92.8 Q100.7 87.2 101.35 81.6 102.95 67.6 111.45 53.25 112.4 59.1 114.0 64.95 112.35 69.4 111.15 74.2 108.75 88.45 122.6 90.5 203.5 95.3 231.55 103.45 259.6 111.6 263.55 83.4 268.6 62.75 254.95 41.55 239.6 17.8 205.45 15.05 157.0 12.1 135.35 32.25 129.05 38.1 124.25 45.05 123.6 41.0 123.35 36.75" fill="#bc1818" fill-rule="evenodd" stroke="none"/>
      <path d="M124.25 45.05 Q129.05 38.1 135.35 32.25 157.0 12.1 205.45 15.05 239.6 17.8 254.95 41.55 268.6 62.75 263.55 83.4 259.6 111.6 231.55 103.45 203.5 95.3 122.6 90.5 108.75 88.45 111.15 74.2 112.35 69.4 114.0 64.95 L115.05 68.55 Q116.9 74.6 119.4 80.55 L138.1 64.75 150.75 85.3 Q171.3 66.6 188.75 39.25 L191.85 34.2 172.35 20.75 Q167.2 32.0 160.9 43.9 L152.1 59.75 142.3 41.85 127.15 57.5 Q125.2 51.5 124.25 45.05" fill="#da1d1d" fill-rule="evenodd" stroke="none"/>
      <path d="M114.0 64.95 Q112.4 59.1 111.45 53.25 116.25 45.05 123.35 36.75 123.6 41.0 124.25 45.05 125.2 51.5 127.15 57.5 L142.3 41.85 152.1 59.75 160.9 43.9 Q167.2 32.0 172.35 20.75 L191.85 34.2 188.75 39.25 Q171.3 66.6 150.75 85.3 L138.1 64.75 119.4 80.55 Q116.9 74.6 115.05 68.55 L114.0 64.95" fill="#ffffff" fill-rule="evenodd" stroke="none"/>
      <path d="M123.4 24.35 Q123.0 30.75 123.35 36.75 116.25 45.05 111.45 53.25 110.3 46.6 109.95 39.85 115.65 32.05 123.4 24.35" fill="#d5d5d5" fill-rule="evenodd" stroke="none"/>
      <path d="M61.75 148.6 Q14.85 131.15 13.6 118.65 13.5 117.8 13.7 117.0 14.45 113.6 20.1 111.4 25.05 109.4 33.8 108.4 20.25 121.35 68.15 132.0 64.55 140.05 61.75 148.6" fill="#4a0b0b" fill-rule="evenodd" stroke="none"/>
      <path d="M33.8 108.4 Q46.45 106.95 67.05 107.45 L81.0 107.9 Q73.65 119.4 68.15 132.0 20.25 121.35 33.8 108.4" fill="#340707" fill-rule="evenodd" stroke="none"/>
    </g>
    <g id="sprite8" transform="matrix(1.0, 0.0, 0.0, 1.0, -10.1, -1.8)">
      <use height="55.0" transform="matrix(1.0, 0.0, 0.0, 1.0, 10.1, 1.8)" width="99.3" xlink:href="#shape0"/>
    </g>
    <g id="sprite9" transform="matrix(1.0, 0.0, 0.0, 1.0, 50.8, 172.25)">
      <use height="69.8" id="hand" transform="matrix(1.0, 0.0, 0.0, 1.0, -50.8, 1.75)" width="89.4" xlink:href="#sprite10"/>
      <use height="283.6" id="offHand" transform="matrix(1.0, 0.0, 0.0, 1.0, -34.0, -172.25)" width="271.3" xlink:href="#sprite11"/>
    </g>
    <g id="sprite10" transform="matrix(1.0, 0.0, 0.0, 1.0, 9.25, 1.25)">
      <use height="69.8" transform="matrix(1.0, 0.0, 0.0, 1.0, -9.25, -1.25)" width="89.4" xlink:href="#shape8"/>
    </g>
    <g id="shape8" transform="matrix(1.0, 0.0, 0.0, 1.0, 9.25, 1.25)">
      <path d="M80.1 31.55 Q80.75 45.85 69.55 56.45 58.4 67.0 42.0 67.7 33.95 68.05 27.0 66.0 L22.75 67.45 Q12.25 70.4 6.7 65.4 1.15 60.35 3.85 50.2 L4.25 48.85 Q-2.35 48.3 -6.1 44.0 -11.35 37.9 -7.8 27.95 -4.25 18.0 6.0 10.0 16.25 1.95 27.2 0.6 L28.35 0.5 Q33.35 -0.95 39.0 -1.2 55.4 -1.9 67.45 7.7 79.5 17.3 80.1 31.55 M34.15 60.1 L36.7 60.35 41.05 60.35 Q54.55 59.75 63.7 51.2 72.85 42.7 72.35 31.25 71.85 19.75 62.0 12.05 53.8 5.75 43.2 5.1 L38.6 5.05 Q32.65 5.3 24.65 7.75 L24.45 7.8 23.95 7.85 Q16.2 9.2 8.55 14.9 L5.45 17.45 Q0.2 22.0 -2.25 27.25 -5.35 33.95 -2.05 37.75 -0.7 39.35 1.5 40.05 L6.0 40.55 8.25 40.3 8.3 40.3 8.95 40.2 Q12.35 39.6 15.75 38.2 12.5 41.8 10.6 45.5 L9.4 48.1 9.15 48.65 9.1 48.85 Q8.15 51.55 8.15 53.7 8.1 56.85 10.15 58.75 12.15 60.6 15.65 60.5 17.95 60.4 20.95 59.4 L22.75 58.75 25.15 57.7 Q29.4 59.5 34.15 60.1" fill="#818698" fill-rule="evenodd" stroke="none"/>
      <path d="M24.45 7.8 L24.65 7.75 Q32.65 5.3 38.6 5.05 L43.2 5.1 Q53.8 5.75 62.0 12.05 71.85 19.75 72.35 31.25 72.85 42.7 63.7 51.2 54.55 59.75 41.05 60.35 L36.7 60.35 34.15 60.1 Q43.5 59.25 50.35 52.3 58.05 44.5 58.05 33.5 58.05 22.45 50.35 14.65 42.6 6.85 31.55 6.85 L25.05 7.7 24.9 7.75 24.45 7.8" fill="#cfd4d4" fill-rule="evenodd" stroke="none"/>
      <path d="M24.45 7.8 L24.9 7.75 25.05 7.7 31.55 6.85 Q42.6 6.85 50.35 14.65 58.05 22.45 58.05 33.5 58.05 44.5 50.35 52.3 43.5 59.25 34.15 60.1 29.4 59.5 25.15 57.7 L22.75 58.75 20.95 59.4 Q17.95 60.4 15.65 60.5 12.15 60.6 10.15 58.75 8.1 56.85 8.15 53.7 8.15 51.55 9.1 48.85 L9.15 48.65 9.4 48.1 10.6 45.5 Q12.5 41.8 15.75 38.2 12.35 39.6 8.95 40.2 L8.3 40.3 8.3 40.25 8.25 40.3 6.0 40.55 1.5 40.05 Q-0.7 39.35 -2.05 37.75 -5.35 33.95 -2.25 27.25 0.2 22.0 5.45 17.45 L8.55 14.9 Q16.2 9.2 23.95 7.85 L24.45 7.8" fill="#fff0de" fill-rule="evenodd" stroke="none"/>
    </g>
    <g id="sprite11" transform="matrix(1.0, 0.0, 0.0, 1.0, 0.0, 0.0)">
      <use height="283.6" transform="matrix(1.0, 0.0, 0.0, 1.0, 0.0, 0.0)" width="271.3" xlink:href="#shape9"/>
    </g>
    <g id="shape9" transform="matrix(1.0, 0.0, 0.0, 1.0, 0.0, 0.0)">
      <path d="M188.65 93.7 Q187.2 90.8 184.55 88.15 179.7 82.85 173.45 82.35 L170.55 82.35 Q161.35 79.95 151.7 82.35 136.25 86.7 129.0 102.15 126.8 106.5 125.6 111.1 123.9 117.6 124.4 124.65 124.65 130.2 126.1 136.0 130.9 153.85 145.4 163.3 159.65 173.2 175.15 168.85 179.0 167.85 182.4 166.2 192.5 160.85 198.1 149.05 204.6 136.0 201.95 121.0 L200.75 115.7 Q197.35 102.65 188.65 93.7 M170.55 78.5 Q187.7 83.55 198.1 97.8 201.0 101.7 203.15 106.5 208.95 118.35 209.2 130.65 209.2 139.35 206.8 148.05 203.15 161.1 194.45 169.55 189.6 174.15 183.6 177.55 L179.7 179.45 Q179.5 179.45 178.5 179.95 L176.35 180.45 176.1 180.65 172.45 181.4 Q166.45 183.1 159.9 182.35 L158.7 182.1 Q135.5 178.75 122.7 159.15 112.05 142.0 113.75 122.45 L114.25 116.9 115.2 112.55 Q118.1 100.95 125.6 92.5 L127.55 90.8 Q129.45 88.65 131.9 86.7 134.3 84.75 136.7 83.3 137.2 82.85 140.1 81.4 L143.95 79.7 Q156.55 74.4 170.55 78.5" fill="#46a8ff" fill-rule="evenodd" stroke="none"/>
      <path d="M167.15 11.1 Q186.7 15.7 203.9 26.8 211.35 31.65 218.6 37.9 L219.6 38.85 223.2 42.0 Q222.0 53.6 220.8 69.3 L218.6 66.65 218.15 66.15 216.2 64.0 Q210.4 57.95 204.35 53.35 200.75 50.45 196.85 48.3 185.25 41.05 171.75 38.15 166.9 36.95 161.85 36.7 168.1 24.85 168.1 20.05 167.9 14.0 167.15 11.1" fill="#e5e5e5" fill-rule="evenodd" stroke="none"/>
      <path d="M167.15 11.1 Q167.9 14.0 168.1 20.05 168.1 24.85 161.85 36.7 157.0 45.65 148.3 58.2 L144.7 63.25 144.2 64.0 143.25 64.25 143.25 64.0 146.6 58.45 150.75 50.25 Q154.35 43.2 156.05 36.45 156.05 35.95 156.3 35.75 158.7 27.3 158.45 20.25 158.2 13.05 154.6 8.7 161.1 9.4 167.15 11.1 M77.05 174.15 Q77.75 173.2 78.75 172.2 L93.0 152.4 Q96.6 146.85 100.7 141.05 L101.95 139.35 104.1 136.0 104.1 135.75 104.35 137.45 104.35 138.15 104.35 138.4 Q104.35 139.35 104.6 140.1 L104.85 142.25 104.35 143.0 102.9 145.4 102.65 146.35 101.45 147.8 100.5 149.75 99.5 150.95 Q95.15 158.7 91.05 164.95 86.45 172.2 82.1 178.0 L81.9 178.5 80.9 179.7 80.45 180.45 Q78.5 177.3 77.05 174.15" fill="#b1b1b1" fill-rule="evenodd" stroke="none"/>
      <path d="M264.75 150.5 L264.75 149.5 265.0 142.5 265.0 140.8 264.75 130.65 Q263.05 107.5 254.85 87.45 245.45 65.2 227.55 46.6 L224.65 43.7 223.2 42.0 219.6 38.85 218.6 37.9 Q211.35 31.65 203.9 26.8 186.7 15.7 167.15 11.1 161.1 9.4 154.6 8.7 L137.45 7.7 Q124.9 7.7 113.05 9.9 108.95 10.6 104.85 11.8 L102.15 12.55 95.9 14.45 92.5 15.7 Q88.15 17.35 83.8 19.55 77.75 22.45 72.2 26.05 67.6 28.95 63.25 32.6 55.05 38.65 47.35 46.6 31.4 63.25 22.45 83.1 14.7 99.25 12.05 117.4 11.35 120.75 11.1 124.15 10.15 132.35 10.15 140.8 L10.35 149.05 Q10.6 155.8 11.6 162.05 L11.8 163.5 12.05 164.95 12.55 166.65 12.55 168.1 Q14.7 179.7 18.8 190.6 21.7 198.05 25.6 205.05 L29.2 211.6 29.7 212.3 32.6 216.9 Q36.45 222.7 41.3 228.25 L47.35 235.05 49.75 237.45 Q70.5 258.2 95.65 267.15 101.2 269.1 107.0 270.55 L109.4 271.25 112.8 271.75 122.7 273.45 125.1 273.7 128.75 273.9 129.7 273.9 137.45 274.15 138.15 274.15 147.1 273.9 159.2 272.45 168.85 270.3 170.8 269.8 Q174.15 269.1 177.3 267.9 L182.15 266.2 Q192.75 262.1 202.65 255.8 210.15 250.95 217.15 244.95 L221.05 241.8 227.55 235.05 Q237.2 225.1 244.45 214.0 248.55 207.5 251.95 200.5 L256.8 189.15 Q260.9 178.0 262.8 166.2 L263.3 164.25 263.8 162.05 263.8 161.1 264.25 157.95 Q264.75 155.55 264.75 150.5 M231.4 41.55 Q250.25 61.35 260.4 85.0 271.3 110.85 271.3 141.8 L271.05 150.95 Q270.55 158.95 269.35 166.9 262.35 209.65 231.4 242.05 227.05 246.6 222.5 250.75 213.55 258.7 204.1 264.75 173.45 283.6 135.5 283.6 L122.2 282.85 Q74.65 278.5 39.6 242.05 10.6 211.6 2.9 172.0 0.0 157.5 0.0 141.8 0.0 126.1 2.9 111.6 9.9 75.85 34.05 47.55 L39.6 41.55 Q57.5 22.95 78.5 12.8 84.8 9.65 91.3 7.25 L93.25 6.75 Q96.85 5.3 100.7 4.35 117.4 0.0 135.5 0.0 162.3 0.0 185.25 9.4 206.05 17.85 223.95 34.3 227.8 37.65 231.4 41.55" fill="#4f575d" fill-rule="evenodd" stroke="none"/>
      <path d="M154.6 8.7 Q158.2 13.05 158.45 20.25 158.7 27.3 156.3 35.75 156.05 35.95 156.05 36.45 L155.1 36.2 153.4 36.2 Q141.8 36.2 131.4 39.1 L130.9 39.1 124.9 41.05 123.2 41.75 Q124.9 36.45 124.9 32.6 124.9 24.6 116.9 21.0 111.1 18.6 101.2 18.6 90.55 18.6 75.6 24.85 73.9 25.35 72.2 26.05 77.75 22.45 83.8 19.55 88.15 17.35 92.5 15.7 L95.9 14.45 102.15 12.55 104.85 11.8 Q108.95 10.6 113.05 9.9 124.9 7.7 137.45 7.7 L154.6 8.7" fill="#dedede" fill-rule="evenodd" stroke="none"/>
      <path d="M156.05 36.45 Q154.35 43.2 150.75 50.25 L146.6 58.45 143.25 64.0 Q138.15 65.95 133.1 68.85 L129.25 71.5 Q126.8 73.4 124.15 76.05 121.75 78.5 119.3 81.4 116.65 84.3 114.75 87.2 110.65 93.45 107.75 100.0 104.1 107.7 102.65 116.4 100.95 124.85 101.45 133.1 100.5 135.0 99.75 137.45 96.15 144.7 93.0 152.4 L78.75 172.2 Q77.75 173.2 77.05 174.15 L75.35 170.55 Q70.3 159.4 68.6 146.85 68.1 145.4 68.1 143.7 L67.6 141.3 67.6 141.05 67.4 137.2 Q67.15 135.25 67.15 133.1 L67.15 131.15 67.15 130.2 67.15 125.1 67.15 123.9 67.15 123.65 69.05 121.95 Q71.75 119.55 77.3 113.05 L85.0 103.35 95.65 89.1 Q100.7 82.6 105.55 75.6 109.9 68.85 113.75 61.8 120.55 50.0 123.2 41.75 L124.9 41.05 130.9 39.1 131.4 39.1 Q141.8 36.2 153.4 36.2 L155.1 36.2 156.05 36.45" fill="#ececec" fill-rule="evenodd" stroke="none"/>
      <path d="M161.85 36.7 Q166.9 36.95 171.75 38.15 185.25 41.05 196.85 48.3 200.75 50.45 204.35 53.35 210.4 57.95 216.2 64.0 L218.15 66.15 218.6 66.65 220.8 69.3 220.8 69.55 Q220.55 72.45 220.55 75.6 219.35 92.0 218.6 108.45 L217.9 106.5 216.7 104.1 Q215.25 100.7 213.05 97.35 210.15 93.0 206.55 88.9 L205.35 87.45 Q192.5 73.9 175.6 70.3 169.8 69.05 163.3 69.05 155.3 69.05 148.05 71.0 L143.95 72.2 138.4 74.6 Q136.25 75.6 134.3 77.05 131.4 78.75 128.75 80.9 L128.0 81.4 Q124.9 83.8 122.0 86.7 L122.0 86.95 121.5 87.45 118.35 90.8 Q116.4 93.25 114.75 95.9 113.05 98.05 111.85 100.25 110.85 101.9 110.15 103.6 L108.7 107.0 Q106.5 112.3 105.3 118.1 L105.3 118.35 Q104.6 122.45 104.35 126.8 L104.1 127.75 104.1 131.15 104.1 131.65 104.1 133.1 104.1 135.75 104.1 136.0 101.95 139.35 100.7 141.05 Q96.6 146.85 93.0 152.4 96.15 144.7 99.75 137.45 100.5 135.0 101.45 133.1 100.95 124.85 102.65 116.4 104.1 107.7 107.75 100.0 110.65 93.45 114.75 87.2 116.65 84.3 119.3 81.4 121.75 78.5 124.15 76.05 126.8 73.4 129.25 71.5 L133.1 68.85 Q138.15 65.95 143.25 64.0 L143.25 64.25 144.2 64.0 144.7 63.25 148.3 58.2 Q157.0 45.65 161.85 36.7 M109.25 157.9 Q109.75 160.6 111.1 163.3 L112.05 165.7 Q114.75 171.25 118.6 176.1 L123.2 181.65 Q132.6 191.3 143.95 195.9 L148.3 197.6 154.1 198.8 153.85 198.8 154.6 199.05 155.55 199.25 156.3 199.25 158.95 199.75 159.45 199.75 164.0 200.0 Q172.7 200.25 181.15 197.8 189.85 195.15 197.35 190.1 L198.1 189.6 194.7 194.95 Q191.3 200.5 183.1 208.95 173.9 218.1 163.3 225.85 L162.8 225.85 160.85 226.1 158.0 226.1 156.55 226.1 156.05 226.1 154.85 226.1 148.05 225.6 147.35 225.6 143.95 225.1 143.25 225.1 142.25 224.9 140.8 224.65 136.95 223.9 135.75 223.65 131.4 222.45 125.6 220.3 124.9 220.05 Q117.85 217.15 111.35 212.8 102.15 207.0 93.95 198.3 90.1 194.2 86.95 190.1 83.35 185.5 80.45 180.45 L80.9 179.7 81.9 178.5 82.1 178.0 Q86.45 172.2 91.05 164.95 95.15 158.7 99.5 150.95 L100.5 149.75 101.45 147.8 102.65 146.35 102.9 145.4 104.35 143.0 104.85 142.25 Q105.8 149.25 108.45 155.8 L108.7 156.05 108.7 156.25 108.95 157.0 109.2 157.5 109.2 157.7 109.25 157.9" fill="#f5f5f5" fill-rule="evenodd" stroke="none"/>
      <path d="M123.2 41.75 Q122.45 42.0 121.75 42.5 119.3 43.95 112.55 46.85 L110.65 48.05 109.2 49.0 105.3 51.7 Q104.1 52.4 103.15 53.35 L102.4 53.85 101.45 54.55 96.6 58.9 92.5 63.05 92.5 63.25 91.8 64.0 87.65 68.85 87.45 69.05 Q84.55 72.7 81.9 76.8 L79.45 80.9 79.2 80.9 78.0 83.55 75.35 88.65 74.15 91.55 73.2 93.7 Q71.25 99.25 69.8 105.05 69.05 107.7 68.85 110.4 68.6 110.4 68.6 110.6 L68.6 110.85 Q67.6 116.65 67.15 123.65 L67.15 123.9 Q63.5 126.55 59.65 129.95 L59.65 130.2 59.4 130.2 Q50.25 136.45 41.75 136.45 34.75 136.45 29.7 131.4 27.3 128.75 25.1 125.1 19.55 114.95 19.55 101.2 19.55 93.45 22.45 83.1 31.4 63.25 47.35 46.6 55.05 38.65 63.25 32.6 67.6 28.95 72.2 26.05 73.9 25.35 75.6 24.85 90.55 18.6 101.2 18.6 111.1 18.6 116.9 21.0 124.9 24.6 124.9 32.6 124.9 36.45 123.2 41.75" fill="#eeeeee" fill-rule="evenodd" stroke="none"/>
      <path d="M67.15 123.65 Q67.6 116.65 68.6 110.85 L68.6 110.6 Q68.6 110.4 68.85 110.4 69.05 107.7 69.8 105.05 71.25 99.25 73.2 93.7 L74.15 91.55 75.35 88.65 78.0 83.55 79.2 80.9 79.45 80.9 81.9 76.8 Q84.55 72.7 87.45 69.05 L87.65 68.85 91.8 64.0 92.5 63.25 92.5 63.05 96.6 58.9 101.45 54.55 102.4 53.85 103.15 53.35 Q104.1 52.4 105.3 51.7 L109.2 49.0 110.65 48.05 112.55 46.85 Q119.3 43.95 121.75 42.5 122.45 42.0 123.2 41.75 120.55 50.0 113.75 61.8 109.9 68.85 105.55 75.6 100.7 82.6 95.65 89.1 L85.0 103.35 77.3 113.05 Q71.75 119.55 69.05 121.95 L67.15 123.65" fill="#fcfcfc" fill-rule="evenodd" stroke="none"/>
      <path d="M104.1 135.75 L104.1 133.1 104.1 131.65 104.1 131.15 104.1 127.75 104.35 126.8 Q104.6 122.45 105.3 118.35 L105.3 118.1 Q106.5 112.3 108.7 107.0 L110.15 103.6 Q110.85 101.9 111.85 100.25 113.05 98.05 114.75 95.9 116.4 93.25 118.35 90.8 L121.5 87.45 122.0 86.95 122.0 86.7 Q124.9 83.8 128.0 81.4 L128.75 80.9 Q131.4 78.75 134.3 77.05 136.25 75.6 138.4 74.6 L143.95 72.2 148.05 71.0 Q155.3 69.05 163.3 69.05 169.8 69.05 175.6 70.3 192.5 73.9 205.35 87.45 L206.55 88.9 Q210.15 93.0 213.05 97.35 215.25 100.7 216.7 104.1 L217.9 106.5 218.6 108.45 219.8 112.05 220.05 112.8 219.8 112.55 220.05 113.05 221.75 120.3 222.25 123.65 Q222.95 132.6 222.0 141.3 221.05 149.5 217.9 157.0 L217.15 158.7 Q213.8 166.2 208.45 172.45 L205.8 176.1 205.55 176.1 Q201.0 180.9 195.65 184.55 187.95 189.6 179.25 192.25 170.8 194.7 162.1 194.45 L157.5 193.95 157.25 193.95 154.35 193.7 153.65 193.5 152.9 193.5 152.2 193.25 146.4 191.8 Q144.2 191.3 142.05 190.35 130.7 185.75 121.5 176.1 118.85 173.45 116.9 170.55 112.8 165.7 110.15 160.15 L109.25 157.9 109.2 157.7 109.2 157.5 108.95 157.0 108.7 156.25 108.7 156.05 108.45 155.8 Q105.8 149.25 104.85 142.25 L104.6 140.1 Q104.35 139.35 104.35 138.4 L104.35 138.15 104.35 137.45 104.1 135.75 M185.25 78.25 Q174.65 72.95 162.3 72.95 154.85 72.95 148.3 74.6 L144.45 75.85 Q141.8 76.8 139.35 78.0 134.8 80.4 130.45 83.55 L129.95 84.05 Q127.05 86.45 124.4 89.1 L123.9 89.6 123.9 89.85 Q117.65 96.35 113.75 104.1 L113.5 104.6 112.05 107.7 Q110.85 110.85 110.15 114.0 109.4 115.95 109.2 118.1 108.2 122.2 107.95 126.8 L107.95 129.7 107.95 130.2 108.45 137.9 108.45 138.15 Q109.4 146.6 112.55 154.1 115.2 160.4 119.55 165.95 L123.9 170.75 Q136.45 184.3 153.4 186.95 L154.1 187.2 157.0 187.45 162.3 187.7 Q184.55 187.7 200.5 171.0 L200.5 170.75 202.45 168.85 204.1 166.9 206.8 163.3 208.45 160.6 Q213.05 152.9 215.0 144.2 L216.45 135.75 216.45 134.05 216.45 130.45 Q216.45 120.75 214.0 112.3 L212.1 107.25 211.1 105.05 Q207.25 96.85 200.5 89.85 193.75 82.35 185.25 78.25" fill="#677a87" fill-rule="evenodd" stroke="none"/>
      <path d="M185.25 78.25 Q193.75 82.35 200.5 89.85 207.25 96.85 211.1 105.05 L212.1 107.25 214.0 112.3 Q216.45 120.75 216.45 130.45 L216.45 134.05 216.45 135.75 215.0 144.2 Q213.05 152.9 208.45 160.6 L206.8 163.3 204.1 166.9 202.45 168.85 200.5 170.75 200.5 171.0 Q184.55 187.7 162.3 187.7 L157.0 187.45 154.1 187.2 153.4 186.95 Q136.45 184.3 123.9 170.75 L119.55 165.95 Q115.2 160.4 112.55 154.1 109.4 146.6 108.45 138.15 L108.45 137.9 107.95 130.2 107.95 129.7 107.95 126.8 Q108.2 122.2 109.2 118.1 109.4 115.95 110.15 114.0 110.85 110.85 112.05 107.7 L113.5 104.6 113.75 104.1 Q117.65 96.35 123.9 89.85 L123.9 89.6 124.4 89.1 Q127.05 86.45 129.95 84.05 L130.45 83.55 Q134.8 80.4 139.35 78.0 141.8 76.8 144.45 75.85 L148.3 74.6 Q154.85 72.95 162.3 72.95 174.65 72.95 185.25 78.25 M170.55 78.5 Q156.55 74.4 143.95 79.7 L140.1 81.4 Q137.2 82.85 136.7 83.3 134.3 84.75 131.9 86.7 129.45 88.65 127.55 90.8 L125.6 92.5 Q118.1 100.95 115.2 112.55 L114.25 116.9 113.75 122.45 Q112.05 142.0 122.7 159.15 135.5 178.75 158.7 182.1 L159.9 182.35 Q166.45 183.1 172.45 181.4 L176.1 180.65 176.35 180.45 178.5 179.95 Q179.5 179.45 179.7 179.45 L183.6 177.55 Q189.6 174.15 194.45 169.55 203.15 161.1 206.8 148.05 209.2 139.35 209.2 130.65 208.95 118.35 203.15 106.5 201.0 101.7 198.1 97.8 187.7 83.55 170.55 78.5" fill="#24465f" fill-rule="evenodd" stroke="none"/>
      <path d="M170.55 82.35 Q165.95 82.85 162.55 86.45 L161.6 87.45 159.65 87.9 Q149.05 90.8 144.2 101.2 143.7 101.9 143.5 102.65 139.35 112.55 142.25 123.65 145.4 135.5 155.1 142.0 164.5 148.3 175.15 145.4 185.25 142.75 190.1 132.35 194.7 122.95 192.5 112.05 L192.05 110.15 Q191.3 107.0 190.1 104.35 190.6 102.15 190.35 99.25 190.1 96.35 188.65 93.7 197.35 102.65 200.75 115.7 L201.95 121.0 Q204.6 136.0 198.1 149.05 192.5 160.85 182.4 166.2 179.0 167.85 175.15 168.85 159.65 173.2 145.4 163.3 130.9 153.85 126.1 136.0 124.65 130.2 124.4 124.65 123.9 117.6 125.6 111.1 126.8 106.5 129.0 102.15 136.25 86.7 151.7 82.35 161.35 79.95 170.55 82.35" fill="#51d3ff" fill-rule="evenodd" stroke="none"/>
      <path d="M161.6 87.45 L162.55 86.45 Q165.95 82.85 170.55 82.35 L173.45 82.35 Q179.7 82.85 184.55 88.15 187.2 90.8 188.65 93.7 190.1 96.35 190.35 99.25 190.6 102.15 190.1 104.35 189.4 106.75 187.45 108.95 L186.25 110.15 Q182.15 114.25 175.85 113.75 169.1 113.5 164.0 108.7 160.65 105.05 159.45 100.95 158.95 99.0 158.95 96.85 158.45 91.3 161.6 87.45" fill="#f5f8fa" fill-rule="evenodd" stroke="none"/>
      <path d="M161.6 87.45 Q158.45 91.3 158.95 96.85 158.95 99.0 159.45 100.95 160.65 105.05 164.0 108.7 169.1 113.5 175.85 113.75 182.15 114.25 186.25 110.15 L187.45 108.95 Q189.4 106.75 190.1 104.35 191.3 107.0 192.05 110.15 L192.5 112.05 Q194.7 122.95 190.1 132.35 185.25 142.75 175.15 145.4 164.5 148.3 155.1 142.0 145.4 135.5 142.25 123.65 139.35 112.55 143.5 102.65 143.7 101.9 144.2 101.2 149.05 90.8 159.65 87.9 L161.6 87.45" fill="#93f0ff" fill-rule="evenodd" stroke="none"/>
      <path d="M22.45 83.1 Q19.55 93.45 19.55 101.2 19.55 114.95 25.1 125.1 27.3 128.75 29.7 131.4 34.75 136.45 41.75 136.45 50.25 136.45 59.4 130.2 L59.65 130.2 Q63.25 127.55 67.15 123.9 L67.15 125.1 67.15 130.2 67.15 131.15 67.15 133.1 Q67.15 135.25 67.4 137.2 L67.6 141.05 67.6 141.3 68.1 143.7 Q68.1 145.4 68.6 146.85 70.3 159.4 75.35 170.55 L77.05 174.15 75.1 176.3 Q63.5 190.35 54.35 196.35 46.35 201.45 39.1 201.95 L38.4 201.95 Q29.95 202.15 22.95 197.8 26.55 205.3 31.4 213.05 L34.05 216.9 34.3 216.9 37.4 216.9 38.15 216.9 Q45.4 216.4 53.15 211.1 L57.25 208.2 57.25 207.95 Q64.7 201.45 73.65 190.1 L74.85 188.15 76.8 185.75 80.45 180.45 Q83.35 185.5 86.95 190.1 90.1 194.2 93.95 198.3 102.15 207.0 111.35 212.8 117.85 217.15 124.9 220.05 L125.6 220.3 131.4 222.45 135.75 223.65 136.95 223.9 140.8 224.65 142.25 224.9 143.25 225.1 143.95 225.1 147.35 225.6 148.05 225.6 154.85 226.1 156.05 226.1 156.55 226.1 158.0 226.1 160.85 226.1 162.8 225.85 163.3 225.85 161.85 227.05 Q130.7 249.3 102.9 249.3 79.45 249.3 65.7 244.7 57.7 242.25 49.75 237.45 L47.35 235.05 41.3 228.25 Q36.45 222.7 32.6 216.9 L29.7 212.3 29.2 211.6 25.6 205.05 Q21.7 198.05 18.8 190.6 14.7 179.7 12.55 168.1 L12.55 166.65 12.05 164.95 11.8 163.5 11.6 162.05 Q10.6 155.8 10.35 149.05 L10.15 140.8 Q10.15 132.35 11.1 124.15 11.35 120.75 12.05 117.4 14.7 99.25 22.45 83.1" fill="#cbcbcb" fill-rule="evenodd" stroke="none"/>
      <path d="M59.65 130.2 L59.65 129.95 Q63.5 126.55 67.15 123.9 63.25 127.55 59.65 130.2" fill="#f3f9fc" fill-rule="evenodd" stroke="none"/>
      <path d="M217.4 199.5 Q217.9 218.6 220.05 235.05 L218.85 238.65 217.15 244.95 Q210.15 250.95 202.65 255.8 201.45 246.85 201.45 239.15 201.45 225.1 202.2 212.55 210.15 207.0 217.4 199.5 M80.45 180.45 L76.8 185.75 74.85 188.15 73.65 190.1 Q64.7 201.45 57.25 207.95 L57.25 208.2 53.15 211.1 Q45.4 216.4 38.15 216.9 L37.4 216.9 34.3 216.9 34.05 216.9 31.4 213.05 Q26.55 205.3 22.95 197.8 29.95 202.15 38.4 201.95 L39.1 201.95 Q46.35 201.45 54.35 196.35 63.5 190.35 75.1 176.3 L77.05 174.15 Q78.5 177.3 80.45 180.45" fill="#9a9a9a" fill-rule="evenodd" stroke="none"/>
      <path d="M220.05 113.05 L221.75 117.6 221.75 117.85 222.0 118.35 221.75 118.35 223.7 126.1 223.95 129.2 Q224.9 138.15 223.95 146.85 222.7 155.05 219.6 162.8 L216.9 168.35 Q214.25 173.45 210.4 178.25 207.75 181.65 204.6 184.55 L198.1 189.6 197.35 190.1 Q189.85 195.15 181.15 197.8 172.7 200.25 164.0 200.0 L159.45 199.75 158.95 199.75 156.3 199.25 155.55 199.25 154.6 199.05 153.85 198.8 154.1 198.8 148.3 197.6 143.95 195.9 Q132.6 191.3 123.2 181.65 L118.6 176.1 Q114.75 171.25 112.05 165.7 L111.1 163.3 Q109.75 160.6 109.25 157.9 L110.15 160.15 Q112.8 165.7 116.9 170.55 118.85 173.45 121.5 176.1 130.7 185.75 142.05 190.35 144.2 191.3 146.4 191.8 L152.2 193.25 152.9 193.5 153.65 193.5 154.35 193.7 157.25 193.95 157.5 193.95 162.1 194.45 Q170.8 194.7 179.25 192.25 187.95 189.6 195.65 184.55 201.0 180.9 205.55 176.1 L205.8 176.1 208.45 172.45 Q213.8 166.2 217.15 158.7 L217.9 157.0 Q221.05 149.5 222.0 141.3 222.95 132.6 222.25 123.65 L221.75 120.3 220.05 113.05" fill="#dde7ec" fill-rule="evenodd" stroke="none"/>
      <path d="M224.65 43.7 L227.8 47.55 Q243.0 68.1 250.25 92.0 253.9 103.6 256.05 114.95 260.4 137.45 259.2 158.95 254.6 164.25 250.25 171.25 L249.8 171.75 248.35 174.15 Q244.2 180.45 239.85 188.15 228.05 209.9 220.05 235.05 217.9 218.6 217.4 199.5 L218.15 198.55 218.35 198.3 221.5 194.95 223.95 191.8 Q229.95 183.55 234.3 174.65 239.15 163.75 241.3 151.95 L242.05 147.6 Q242.75 142.5 243.0 137.2 L243.0 131.15 243.0 128.5 243.0 128.0 242.55 122.45 242.55 121.25 241.3 114.0 Q240.6 108.95 239.15 104.35 L238.9 103.15 Q238.65 102.65 238.65 102.15 L238.4 101.2 235.3 93.0 Q234.55 91.05 233.6 89.35 231.65 85.25 229.5 81.65 L228.05 78.95 Q224.65 73.9 220.8 69.3 222.0 53.6 223.2 42.0 L224.65 43.7 M202.2 212.55 Q201.45 225.1 201.45 239.15 201.45 246.85 202.65 255.8 192.75 262.1 182.15 266.2 L177.3 267.9 Q174.15 269.1 170.8 269.8 L168.85 270.3 159.2 272.45 147.1 273.9 138.15 274.15 137.45 274.15 129.7 273.9 128.75 273.9 125.1 273.7 122.7 273.45 112.8 271.75 109.4 271.25 107.0 270.55 Q101.2 269.1 95.65 267.15 70.5 258.2 49.75 237.45 57.7 242.25 65.7 244.7 79.45 249.3 102.9 249.3 130.7 249.3 161.85 227.05 L163.3 225.85 166.65 225.6 168.85 225.35 Q179.95 223.65 189.85 219.3 196.15 216.4 202.2 212.55" fill="#b8b8b8" fill-rule="evenodd" stroke="none"/>
      <path d="M220.8 69.55 L220.8 69.3 Q224.65 73.9 228.05 78.95 L229.5 81.65 Q231.65 85.25 233.6 89.35 234.55 91.05 235.3 93.0 L238.4 101.2 238.65 102.15 Q238.65 102.65 238.9 103.15 L239.15 104.35 Q240.6 108.95 241.3 114.0 L242.55 121.25 242.55 122.45 243.0 128.0 243.0 128.5 243.0 131.15 243.0 137.2 Q242.75 142.5 242.05 147.6 L241.3 151.95 Q239.15 163.75 234.3 174.65 229.95 183.55 223.95 191.8 L221.5 194.95 218.35 198.3 218.15 198.55 217.4 199.5 Q216.9 190.1 216.9 180.2 L216.9 168.35 219.6 162.8 Q222.7 155.05 223.95 146.85 224.9 138.15 223.95 129.2 L223.7 126.1 221.75 118.35 222.0 118.35 221.75 117.85 221.75 117.6 Q222.25 109.9 222.25 101.45 222.25 81.65 220.8 69.55 M198.1 189.6 L204.6 184.55 Q202.9 197.6 202.2 212.55 196.15 216.4 189.85 219.3 179.95 223.65 168.85 225.35 L166.65 225.6 163.3 225.85 Q173.9 218.1 183.1 208.95 191.3 200.5 194.7 194.95 L198.1 189.6" fill="#d7d7d7" fill-rule="evenodd" stroke="none"/>
      <path d="M224.65 43.7 L227.55 46.6 Q245.45 65.2 254.85 87.45 263.05 107.5 264.75 130.65 L265.0 140.8 265.0 142.5 264.75 149.5 264.75 150.5 264.5 152.4 263.8 161.1 263.8 162.05 263.3 164.25 262.8 166.2 Q260.9 178.0 256.8 189.15 L251.95 200.5 Q253.65 195.15 254.85 189.6 257.25 179.95 258.45 169.55 L259.2 158.95 Q260.4 137.45 256.05 114.95 253.9 103.6 250.25 92.0 243.0 68.1 227.8 47.55 L224.65 43.7" fill="#e9e9e9" fill-rule="evenodd" stroke="none"/>
      <path d="M218.6 108.45 Q219.35 92.0 220.55 75.6 220.55 72.45 220.8 69.55 222.25 81.65 222.25 101.45 222.25 109.9 221.75 117.6 L220.05 113.05 219.8 112.55 220.05 112.8 219.8 112.05 218.6 108.45 M204.6 184.55 Q207.75 181.65 210.4 178.25 214.25 173.45 216.9 168.35 L216.9 180.2 Q216.9 190.1 217.4 199.5 210.15 207.0 202.2 212.55 202.9 197.6 204.6 184.55" fill="#c2c2c2" fill-rule="evenodd" stroke="none"/>
      <path d="M259.2 158.95 L258.45 169.55 Q257.25 179.95 254.85 189.6 251.0 201.45 244.45 214.0 237.2 225.1 227.55 235.05 L221.05 241.8 220.05 235.05 Q228.05 209.9 239.85 188.15 244.2 180.45 248.35 174.15 L249.8 171.75 250.25 171.25 Q254.6 164.25 259.2 158.95" fill="#d2d2d2" fill-rule="evenodd" stroke="none"/>
      <path d="M254.85 189.6 Q253.65 195.15 251.95 200.5 248.55 207.5 244.45 214.0 251.0 201.45 254.85 189.6 M263.8 161.1 L264.5 152.4 264.75 150.5 Q264.75 155.55 264.25 157.95 L263.8 161.1" fill="#e1e4e7" fill-rule="evenodd" stroke="none"/>
      <path d="M217.15 244.95 L218.85 238.65 220.05 235.05 221.05 241.8 217.15 244.95" fill="#b2bec6" fill-rule="evenodd" stroke="none"/>
    </g>
  </defs>
</svg>
