<?xml version="1.0" encoding="UTF-8" standalone="no"?>
<svg xmlns:xlink="http://www.w3.org/1999/xlink" height="15.6px" width="22.05px" xmlns="http://www.w3.org/2000/svg">
  <g transform="matrix(1.0, 0.0, 0.0, 1.0, 5.3, 7.55)">
    <use height="15.6" transform="matrix(1.0, 0.0, 0.0, 1.0, -5.3, -7.55)" width="22.05" xlink:href="#shape0"/>
  </g>
  <defs>
    <g id="shape0" transform="matrix(1.0, 0.0, 0.0, 1.0, 5.3, 7.55)">
      <path d="M6.55 -7.3 L6.6 -7.3 7.45 -7.15 Q9.4 -6.8 11.15 -6.1 L10.95 -5.45 Q9.45 -6.2 7.65 -6.55 L6.35 -6.8 6.55 -7.3 M11.0 6.6 Q9.35 7.3 7.45 7.65 L6.6 7.75 6.5 7.75 6.35 7.3 7.65 7.1 10.95 6.0 11.0 6.6" fill="#765301" fill-rule="evenodd" stroke="none"/>
      <path d="M6.55 -7.3 L6.35 -6.8 2.95 -7.05 -0.75 -6.8 -1.25 -6.7 -1.75 -6.6 -2.3 -5.85 -2.5 -5.5 -2.6 -5.35 -2.8 -4.65 Q-3.35 -2.6 -3.35 0.25 -3.35 3.15 -2.8 5.2 L-2.6 5.85 -2.5 5.95 -2.3 6.4 -1.65 7.1 -1.4 7.2 -0.8 7.3 2.95 7.6 6.35 7.3 6.5 7.75 3.1 8.05 -1.55 7.6 -1.8 7.55 -2.5 6.95 -2.7 6.6 -3.0 6.65 Q-3.95 6.65 -4.65 4.8 -5.3 2.85 -5.3 0.25 -5.3 -2.35 -4.65 -4.25 -3.95 -6.1 -3.0 -6.1 L-2.7 -6.1 -2.55 -6.4 -1.85 -7.1 -1.5 -7.15 3.1 -7.55 6.55 -7.3 M-3.55 -3.4 L-3.2 -5.0 -3.0 -5.5 Q-3.8 -5.5 -4.35 -3.8 L-4.45 -3.4 -4.7 -2.2 -4.85 0.25 -4.7 3.0 -4.35 4.3 Q-3.8 6.0 -3.0 6.0 L-3.2 5.45 -3.7 3.0 -3.9 0.2 -3.75 -2.15 -3.55 -3.4" fill="#750d02" fill-rule="evenodd" stroke="none"/>
      <path d="M6.35 -6.8 L7.65 -6.55 Q9.45 -6.2 10.95 -5.45 L10.85 -4.75 Q8.75 -5.65 6.2 -6.0 L6.35 -6.8 M6.35 7.3 L6.2 6.55 Q8.7 6.2 10.8 5.3 L10.95 6.0 7.65 7.1 6.35 7.3 M5.85 3.95 L5.8 2.8 6.4 2.8 10.5 2.6 10.6 3.55 5.85 3.95 M5.8 -2.25 L5.85 -3.4 10.6 -3.0 10.5 -2.0 6.4 -2.25 5.8 -2.25" fill="#f7c500" fill-rule="evenodd" stroke="none"/>
      <path d="M5.25 -6.1 L4.85 -6.5 2.3 -6.6 -0.5 -6.35 Q-1.4 -6.1 -1.4 -5.8 -1.4 -5.5 -0.55 -5.45 L-0.25 -5.45 -0.55 -4.7 Q-0.75 -2.8 1.3 -3.15 L5.6 -3.4 5.85 -3.4 5.8 -2.25 -0.05 -1.5 -0.75 -1.3 -1.25 -1.1 Q-2.7 -0.45 -2.7 0.3 -2.7 1.05 -1.25 1.65 L-0.75 1.8 -0.05 2.1 5.8 2.8 5.85 3.95 5.6 3.95 1.3 3.7 Q-0.6 3.35 -0.6 4.85 -0.45 6.75 1.3 6.7 L2.7 6.75 6.2 6.55 6.35 7.3 2.95 7.6 -0.8 7.3 -1.4 7.2 -1.65 7.1 -2.3 6.4 -2.5 5.95 -2.6 5.85 -2.8 5.2 Q-3.35 3.15 -3.35 0.25 -3.35 -2.6 -2.8 -4.65 L-2.6 -5.35 -2.5 -5.5 -2.3 -5.85 -1.75 -6.6 -1.25 -6.7 -0.75 -6.8 2.95 -7.05 6.35 -6.8 6.2 -6.0 5.25 -6.1" fill="#ba2501" fill-rule="evenodd" stroke="none"/>
      <path d="M-0.25 -5.45 L-0.55 -5.45 Q-1.4 -5.5 -1.4 -5.8 -1.4 -6.1 -0.5 -6.35 L2.3 -6.6 4.85 -6.5 5.25 -6.1 5.1 -5.9 Q4.65 -5.5 3.65 -5.5 L1.4 -5.45 -0.25 -5.45 M13.45 -3.4 L13.85 -3.25 14.7 -2.55 14.75 -1.8 Q14.55 -1.5 14.1 -1.55 L13.35 -1.75 13.05 -1.9 Q12.5 -2.2 12.3 -2.6 L12.25 -2.65 Q12.0 -3.05 12.15 -3.3 L12.8 -3.6 13.2 -3.55 13.45 -3.4 M-4.45 -3.4 Q-4.05 -3.15 -3.55 -3.4 L-3.75 -2.15 -4.7 -2.2 -4.45 -3.4" fill="#ffffff" fill-rule="evenodd" stroke="none"/>
      <path d="M5.25 -6.1 L6.2 -6.0 6.05 -5.35 5.85 -3.4 5.6 -3.4 1.3 -3.15 Q-0.75 -2.8 -0.55 -4.7 L-0.25 -5.45 1.4 -5.45 3.65 -5.5 Q4.65 -5.5 5.1 -5.9 L5.25 -6.1 M6.2 6.55 L2.7 6.75 1.3 6.7 Q-0.45 6.75 -0.6 4.85 -0.6 3.35 1.3 3.7 L5.6 3.95 5.85 3.95 6.05 5.85 6.2 6.55" fill="#e32f02" fill-rule="evenodd" stroke="none"/>
      <path d="M5.8 -2.25 L6.4 -2.25 10.5 -2.0 10.45 0.35 10.5 2.6 6.4 2.8 5.8 2.8 5.7 0.25 5.8 -2.25" fill="#cc8e00" fill-rule="evenodd" stroke="none"/>
      <path d="M10.6 -3.0 L5.85 -3.4 6.05 -5.35 6.2 -6.0 Q8.75 -5.65 10.85 -4.75 L10.8 -4.45 10.6 -3.0 M10.6 3.55 L10.8 5.25 10.8 5.3 Q8.7 6.2 6.2 6.55 L6.05 5.85 5.85 3.95 10.6 3.55" fill="#ffff66" fill-rule="evenodd" stroke="none"/>
      <path d="M13.35 -1.75 L14.1 -1.55 Q14.55 -1.5 14.75 -1.8 L14.7 -2.55 13.85 -3.25 13.45 -3.4 13.5 -4.0 Q16.0 -2.2 16.0 0.25 16.0 2.7 13.5 4.55 L13.4 3.9 Q13.8 3.55 13.7 3.2 L13.35 3.0 13.35 2.6 13.35 2.0 Q15.6 1.25 15.6 0.3 15.6 -0.7 13.35 -1.45 L13.35 -1.75" fill="#cc0000" fill-rule="evenodd" stroke="none"/>
      <path d="M10.95 -5.45 L11.15 -6.1 11.25 -6.05 12.25 -5.55 Q12.45 -5.45 12.75 -5.3 L13.65 -4.75 13.5 -4.0 12.4 -4.75 12.15 -4.85 10.95 -5.45 M13.65 5.25 L12.75 5.7 12.3 6.0 11.15 6.55 11.0 6.6 10.95 6.0 12.15 5.45 12.45 5.25 13.5 4.55 13.65 5.25" fill="#330000" fill-rule="evenodd" stroke="none"/>
      <path d="M13.65 -4.75 L13.65 -4.7 Q16.75 -2.6 16.75 0.25 16.75 3.1 13.65 5.2 L13.65 5.25 13.5 4.55 Q16.0 2.7 16.0 0.25 16.0 -2.2 13.5 -4.0 L13.65 -4.75" fill="#760101" fill-rule="evenodd" stroke="none"/>
      <path d="M13.2 -3.55 L12.8 -3.6 12.15 -3.3 Q12.0 -3.05 12.25 -2.65 L10.6 -3.0 10.8 -4.45 10.85 -4.75 11.9 -4.3 13.1 -3.65 13.2 -3.55 M10.6 3.55 L12.8 3.05 13.35 3.0 13.4 3.9 13.15 4.1 11.9 4.85 10.8 5.3 10.8 5.25 10.6 3.55" fill="#980101" fill-rule="evenodd" stroke="none"/>
      <path d="M10.5 -2.0 L10.6 -3.0 12.25 -2.65 12.3 -2.6 Q12.5 -2.2 13.05 -1.9 L13.35 -1.75 13.35 -1.45 Q15.6 -0.7 15.6 0.3 15.6 1.25 13.35 2.0 L13.35 2.6 13.35 3.0 12.8 3.05 10.6 3.55 10.5 2.6 12.95 2.1 13.35 2.0 13.3 0.35 13.35 -1.45 12.95 -1.5 10.5 -2.0 M10.85 -4.75 L10.95 -5.45 12.15 -4.85 12.4 -4.75 13.5 -4.0 13.45 -3.4 13.2 -3.55 13.1 -3.65 11.9 -4.3 10.85 -4.75 M13.4 3.9 L13.5 4.55 12.45 5.25 12.15 5.45 10.95 6.0 10.8 5.3 11.9 4.85 13.15 4.1 13.4 3.9" fill="#660000" fill-rule="evenodd" stroke="none"/>
      <path d="M10.5 2.6 L10.45 0.35 10.5 -2.0 12.95 -1.5 13.35 -1.45 13.3 0.35 13.35 2.0 12.95 2.1 10.5 2.6" fill="#440000" fill-rule="evenodd" stroke="none"/>
      <path d="M13.35 3.0 L13.7 3.2 Q13.8 3.55 13.4 3.9 L13.35 3.0" fill="#fd1c1c" fill-rule="evenodd" stroke="none"/>
      <path d="M5.8 2.8 L-0.05 2.1 -0.75 1.8 -1.25 1.65 Q-2.7 1.05 -2.7 0.3 -2.7 -0.45 -1.25 -1.1 L-0.75 -1.3 -0.05 -1.5 5.8 -2.25 5.7 0.25 5.8 2.8" fill="#981f01" fill-rule="evenodd" stroke="none"/>
      <path d="M-3.55 -3.4 Q-4.05 -3.15 -4.45 -3.4 L-4.35 -3.8 Q-3.8 -5.5 -3.0 -5.5 L-3.2 -5.0 -3.55 -3.4" fill="#d54000" fill-rule="evenodd" stroke="none"/>
      <path d="M-4.7 -2.2 L-3.75 -2.15 -3.9 0.2 -3.7 3.0 -4.7 3.0 -4.85 0.25 -4.7 -2.2" fill="#6f2100" fill-rule="evenodd" stroke="none"/>
      <path d="M-4.7 3.0 L-3.7 3.0 -3.2 5.45 -3.0 6.0 Q-3.8 6.0 -4.35 4.3 L-4.7 3.0" fill="#541a01" fill-rule="evenodd" stroke="none"/>
    </g>
  </defs>
</svg>
