<?xml version="1.0" encoding="UTF-8" standalone="no"?>
<svg xmlns:xlink="http://www.w3.org/1999/xlink" height="23.05px" width="23.3px" xmlns="http://www.w3.org/2000/svg">
  <g transform="matrix(1.0, 0.0, 0.0, 1.0, 11.65, 11.4)">
    <use height="23.05" transform="matrix(1.0, 0.0, 0.0, 1.0, -11.65, -11.4)" width="23.3" xlink:href="#shape0"/>
  </g>
  <defs>
    <g id="shape0" transform="matrix(1.0, 0.0, 0.0, 1.0, 11.65, 11.4)">
      <path d="M9.75 -6.55 L6.45 -9.85 4.95 -7.65 4.45 -7.95 4.3 -8.05 Q2.4 -9.05 0.0 -9.1 -2.35 -9.1 -4.3 -8.0 L-4.55 -7.85 -5.1 -7.55 -6.65 -9.75 -9.95 -6.45 -7.7 -4.9 -7.95 -4.45 -8.15 -4.15 Q-9.2 -2.2 -9.2 0.1 -9.15 2.5 -8.1 4.45 L-7.95 4.7 -7.7 5.15 -9.85 6.65 -6.55 9.95 -5.05 7.8 -4.45 8.15 -4.25 8.3 Q-2.35 9.3 0.0 9.3 2.4 9.3 4.35 8.3 L4.7 8.1 5.1 7.8 6.55 9.85 9.85 6.55 7.75 5.1 8.05 4.7 8.2 4.4 Q9.2 2.45 9.2 0.1 9.2 -2.25 8.2 -4.15 L8.05 -4.45 7.65 -5.05 9.75 -6.55 M4.75 -8.75 L6.4 -11.35 11.6 -6.3 8.95 -4.65 Q10.15 -2.45 10.15 0.2 10.15 2.75 9.0 4.9 L11.65 6.55 6.45 11.6 4.85 9.1 Q2.7 10.3 0.05 10.3 -2.6 10.3 -4.75 9.1 L-6.4 11.65 -11.6 6.6 -8.9 4.95 Q-10.05 2.8 -10.05 0.2 -10.05 -2.45 -8.9 -4.6 L-11.65 -6.35 -6.45 -11.4 -4.75 -8.75 Q-2.6 -9.9 0.05 -9.9 2.65 -9.9 4.75 -8.75 M3.05 -5.8 L3.5 -5.55 2.5 -4.1 4.05 -2.55 5.55 -3.6 5.9 -3.05 6.05 -2.8 Q6.7 -1.45 6.7 0.2 6.7 1.75 6.1 3.1 L6.0 3.35 5.75 3.75 4.1 2.6 2.55 4.15 3.75 5.8 3.35 6.05 3.05 6.25 Q1.65 6.9 0.0 6.9 -1.65 6.9 -2.95 6.3 L-3.15 6.2 -3.7 5.85 -2.6 4.2 -4.15 2.65 -5.7 3.75 -5.95 3.35 -6.05 3.15 Q-6.75 1.75 -6.75 0.15 -6.75 -1.5 -6.05 -2.8 L-5.9 -3.1 -5.65 -3.5 -4.2 -2.5 -2.65 -4.05 -3.65 -5.5 -3.2 -5.75 -2.95 -5.9 Q-1.65 -6.55 -0.05 -6.55 1.55 -6.55 2.9 -5.85 L3.05 -5.8 M2.45 -5.15 L0.05 -5.65 -2.45 -5.1 -1.65 -3.9 -4.0 -1.55 -5.25 -2.3 Q-5.8 -1.15 -5.8 0.2 -5.8 1.55 -5.25 2.65 L-3.95 1.8 -1.6 4.15 -2.45 5.5 0.05 6.05 Q1.4 6.05 2.55 5.5 L1.65 4.1 4.0 1.75 5.4 2.65 Q5.9 1.5 5.9 0.2 5.9 -1.2 5.3 -2.35 L3.95 -1.5 1.6 -3.85 2.45 -5.15 M1.55 -1.35 Q2.15 -0.7 2.15 0.2 2.15 1.1 1.55 1.7 0.9 2.35 0.05 2.35 -0.85 2.35 -1.5 1.7 -2.1 1.1 -2.1 0.2 -2.1 -0.7 -1.5 -1.35 -0.85 -1.95 0.05 -1.95 0.9 -1.95 1.55 -1.35 M1.1 -0.95 Q0.65 -1.4 0.0 -1.4 -0.65 -1.4 -1.1 -0.95 -1.55 -0.5 -1.55 0.15 -1.55 0.8 -1.1 1.2 -0.6 1.7 0.0 1.65 0.65 1.65 1.1 1.2 1.55 0.8 1.55 0.15 1.6 -0.5 1.1 -0.95" fill="#485359" fill-rule="evenodd" stroke="none"/>
      <path d="M8.05 -7.35 L3.75 -3.8 3.15 -4.2 6.5 -8.8 8.05 -7.35 M0.55 -0.05 L0.3 0.55 -0.3 0.8 -0.9 0.55 -1.15 -0.05 -0.9 -0.65 -0.3 -0.9 0.3 -0.65 0.55 -0.05 M3.75 3.9 L4.25 3.35 8.7 6.55 7.05 8.1 3.75 3.9 M-4.4 3.45 L-3.9 4.2 -7.3 8.2 -8.95 6.8 -4.4 3.45 M-8.2 -7.45 L-6.8 -8.95 -3.55 -4.4 -3.55 -4.35 -4.15 -3.85 -8.2 -7.45" fill="#ffffff" fill-rule="evenodd" stroke="none"/>
      <path d="M-10.45 -5.5 L-10.5 -5.5 -10.45 -5.55 -10.45 -5.5" fill="#1f2325" fill-rule="evenodd" stroke="none"/>
      <path d="M8.05 -7.35 L6.5 -8.8 3.15 -4.2 3.75 -3.8 8.05 -7.35 M9.75 -6.55 L7.65 -5.05 8.05 -4.45 8.2 -4.15 Q9.2 -2.25 9.2 0.1 9.2 2.45 8.2 4.4 L8.05 4.7 7.75 5.1 9.85 6.55 6.55 9.85 5.1 7.8 4.7 8.1 4.35 8.3 Q2.4 9.3 0.0 9.3 -2.35 9.3 -4.25 8.3 L-4.45 8.15 -5.05 7.8 -6.55 9.95 -9.85 6.65 -7.7 5.15 -7.95 4.7 -8.1 4.45 Q-9.15 2.5 -9.2 0.1 -9.2 -2.2 -8.15 -4.15 L-7.95 -4.45 -7.7 -4.9 -9.95 -6.45 -6.65 -9.75 -5.1 -7.55 -4.55 -7.85 -4.3 -8.0 Q-2.35 -9.1 0.0 -9.1 2.4 -9.05 4.3 -8.05 L4.45 -7.95 4.95 -7.65 6.45 -9.85 9.75 -6.55 M3.05 -5.8 L2.9 -5.85 Q1.55 -6.55 -0.05 -6.55 -1.65 -6.55 -2.95 -5.9 L-3.2 -5.75 -3.65 -5.5 -2.65 -4.05 -4.2 -2.5 -5.65 -3.5 -5.9 -3.1 -6.05 -2.8 Q-6.75 -1.5 -6.75 0.15 -6.75 1.75 -6.05 3.15 L-5.95 3.35 -5.7 3.75 -4.15 2.65 -2.6 4.2 -3.7 5.85 -3.15 6.2 -2.95 6.3 Q-1.65 6.9 0.0 6.9 1.65 6.9 3.05 6.25 L3.35 6.05 3.75 5.8 2.55 4.15 4.1 2.6 5.75 3.75 6.0 3.35 6.1 3.1 Q6.7 1.75 6.7 0.2 6.7 -1.45 6.05 -2.8 L5.9 -3.05 5.55 -3.6 4.05 -2.55 2.5 -4.1 3.5 -5.55 3.05 -5.8 M1.1 -0.95 Q1.6 -0.5 1.55 0.15 1.55 0.8 1.1 1.2 0.65 1.65 0.0 1.65 -0.6 1.7 -1.1 1.2 -1.55 0.8 -1.55 0.15 -1.55 -0.5 -1.1 -0.95 -0.65 -1.4 0.0 -1.4 0.65 -1.4 1.1 -0.95 M0.55 -0.05 L0.3 -0.65 -0.3 -0.9 -0.9 -0.65 -1.15 -0.05 -0.9 0.55 -0.3 0.8 0.3 0.55 0.55 -0.05 M3.75 3.9 L7.05 8.1 8.7 6.55 4.25 3.35 3.75 3.9 M-8.2 -7.45 L-4.15 -3.85 -3.55 -4.35 -3.55 -4.4 -6.8 -8.95 -8.2 -7.45 M-4.4 3.45 L-8.95 6.8 -7.3 8.2 -3.9 4.2 -4.4 3.45" fill="url(#gradient0)" fill-rule="evenodd" stroke="none"/>
    </g>
    <linearGradient gradientTransform="matrix(0.0, -0.0161, 0.0121, 0.0, -0.45, 4.55)" gradientUnits="userSpaceOnUse" id="gradient0" spreadMethod="pad" x1="-819.2" x2="819.2">
      <stop offset="0.0" stop-color="#c8d0d9"/>
      <stop offset="1.0" stop-color="#ffffff"/>
    </linearGradient>
  </defs>
</svg>
