<?xml version="1.0" encoding="UTF-8" standalone="no"?>
<svg xmlns:xlink="http://www.w3.org/1999/xlink" height="24.7px" width="20.4px" xmlns="http://www.w3.org/2000/svg">
  <g transform="matrix(1.0, 0.0, 0.0, 1.0, 12.3, 8.75)">
    <use height="24.7" transform="matrix(1.0, 0.0, 0.0, 1.0, -9.45, -8.75)" width="17.55" xlink:href="#shape0"/>
    <use height="7.0" id="hand" transform="matrix(0.9892, 0.0, 0.0, 0.9965, -10.35, 4.75)" width="9.0" xlink:href="#sprite0"/>
    <use height="1.5" id="barrel" transform="matrix(1.0, 0.0, 0.0, 1.0, 4.4, 0.6)" width="1.0" xlink:href="#sprite2"/>
  </g>
  <defs>
    <g id="shape0" transform="matrix(1.0, 0.0, 0.0, 1.0, -6.95, -1.05)">
      <path d="M19.4 3.5 L21.0 3.5 21.0 1.7 14.15 1.7 12.75 1.7 12.75 2.95 11.7 3.45 Q9.95 4.45 8.9 6.15 7.75 8.25 7.75 10.75 L7.75 10.95 Q7.75 11.8 7.9 12.5 L7.7 15.0 7.7 15.45 7.7 15.75 8.7 15.75 8.9 17.75 8.15 17.75 Q8.45 19.5 9.15 20.55 L9.65 20.8 10.05 21.0 10.65 21.95 10.7 21.95 11.7 23.15 Q13.45 24.8 15.65 24.8 18.55 24.8 20.6 21.95 L21.25 21.0 21.95 21.0 22.55 19.55 22.75 19.2 23.1 17.75 22.4 17.75 22.65 15.75 23.55 15.55 Q23.8 13.45 23.2 11.6 L22.2 11.95 21.75 10.6 20.6 8.5 20.05 7.8 19.25 7.05 19.25 3.95 19.25 3.5 19.4 3.5 M21.05 1.05 Q21.35 1.05 21.6 1.3 L21.85 1.85 21.85 3.6 21.6 4.15 21.05 4.4 20.1 4.4 20.1 6.8 20.75 7.4 21.35 8.15 21.35 8.2 22.55 10.4 22.55 10.35 22.8 11.05 23.0 10.95 23.6 11.0 24.05 11.5 Q24.75 13.5 24.4 15.8 L24.2 16.25 23.8 16.45 23.45 16.55 23.4 17.1 23.6 17.2 23.95 17.55 23.95 18.0 23.6 19.55 23.55 19.7 23.4 20.0 22.75 21.5 22.45 21.8 22.0 21.9 21.8 21.9 21.35 22.6 Q19.05 25.75 15.75 25.75 13.15 25.75 11.2 23.85 L11.3 23.85 10.15 22.6 Q9.95 22.3 10.05 21.95 L10.05 21.9 9.8 21.8 8.95 21.45 8.6 21.2 Q7.75 20.0 7.4 18.0 7.35 17.75 7.45 17.5 L7.75 17.2 8.05 17.1 8.0 16.7 7.75 16.7 7.2 16.45 6.95 15.85 6.95 15.6 6.95 15.1 7.15 12.65 Q7.0 11.85 7.0 10.9 7.0 8.05 8.3 5.9 9.6 3.7 12.0 2.55 L12.0 1.85 12.2 1.3 Q12.45 1.05 12.8 1.05 L21.05 1.05 M9.3 9.95 L9.25 9.95 9.3 9.75 9.3 9.95" fill="#000000" fill-rule="evenodd" stroke="none"/>
      <path d="M14.15 1.7 L21.0 1.7 21.0 3.5 19.4 3.5 19.0 3.4 18.5 3.45 17.2 3.7 15.4 3.95 14.35 3.8 Q13.8 3.5 13.8 2.95 L13.9 2.65 14.15 1.7" fill="#889597" fill-rule="evenodd" stroke="none"/>
      <path d="M19.4 3.5 L19.25 3.5 18.45 4.25 Q17.55 4.95 16.55 5.0 L16.4 4.85 15.65 4.75 15.4 4.85 14.8 4.7 13.8 4.2 13.25 3.75 13.05 3.6 12.95 3.4 12.75 3.3 12.75 2.95 12.75 1.7 14.15 1.7 13.9 2.65 13.8 2.95 Q13.8 3.5 14.35 3.8 L15.4 3.95 17.2 3.7 18.5 3.45 19.0 3.4 19.4 3.5" fill="#657677" fill-rule="evenodd" stroke="none"/>
      <path d="M19.25 3.5 L19.25 3.95 18.45 4.7 16.75 5.35 16.7 5.25 16.55 5.0 Q17.55 4.95 18.45 4.25 L19.25 3.5 M15.4 4.85 Q15.15 4.9 15.0 5.05 L15.0 5.1 14.2 4.75 13.95 4.6 13.3 4.1 13.15 3.8 13.1 3.7 13.05 3.6 13.25 3.75 13.8 4.2 14.8 4.7 15.4 4.85" fill="#2d3535" fill-rule="evenodd" stroke="none"/>
      <path d="M16.0 6.95 L16.0 6.9 16.2 6.65 16.4 6.4 16.45 6.25 16.45 5.85 16.45 5.75 16.35 5.35 16.15 5.15 15.65 5.15 15.4 5.15 15.3 5.15 Q15.25 5.15 15.15 5.25 L14.9 5.5 14.7 5.75 14.6 5.75 14.5 6.0 14.4 6.65 14.4 6.8 14.45 7.05 14.75 7.3 15.45 7.4 15.5 7.3 15.65 7.3 16.0 6.95 M15.4 4.85 L15.65 4.75 16.4 4.85 16.55 5.0 16.7 5.25 16.75 5.35 16.8 5.7 16.8 5.75 16.75 6.15 16.7 6.4 16.55 6.6 16.45 6.9 16.25 7.1 16.1 7.3 15.9 7.4 15.65 7.65 15.5 7.65 Q14.9 7.85 14.5 7.65 L14.15 7.3 14.1 7.2 14.05 7.0 14.05 6.9 14.0 6.75 Q14.0 6.25 14.4 5.6 L14.5 5.5 14.75 5.25 15.0 5.1 15.0 5.05 Q15.15 4.9 15.4 4.85" fill="#1a1a1a" fill-rule="evenodd" stroke="none"/>
      <path d="M19.25 3.95 L19.25 7.05 19.25 7.2 17.95 7.25 17.85 7.1 17.3 6.35 16.8 5.75 16.8 5.7 16.75 5.35 18.45 4.7 19.25 3.95 M13.3 4.1 L13.95 4.6 14.2 4.75 13.5 4.9 13.3 4.1" fill="#566364" fill-rule="evenodd" stroke="none"/>
      <path d="M15.65 5.15 L16.15 5.15 16.35 5.35 16.45 5.75 16.45 5.85 16.45 6.25 16.4 6.4 16.2 6.65 16.0 6.9 16.0 6.95 Q14.9 7.1 15.15 6.3 15.15 6.1 15.3 5.85 L15.4 5.6 15.55 5.4 15.65 5.25 15.65 5.15" fill="#546675" fill-rule="evenodd" stroke="none"/>
      <path d="M16.25 7.1 L16.45 6.9 16.55 6.6 17.2 7.3 17.65 8.0 17.7 8.2 Q18.4 10.1 17.65 11.1 17.8 9.7 17.15 8.25 L17.05 8.05 16.25 7.1" fill="#353535" fill-rule="evenodd" stroke="none"/>
      <path d="M14.5 5.5 L14.4 5.6 Q14.0 6.25 14.0 6.75 13.05 6.75 12.3 7.35 L12.0 7.65 11.7 8.0 Q11.15 8.7 11.15 9.65 L11.15 9.85 11.45 10.95 12.0 11.7 12.75 12.25 13.15 12.4 14.05 12.5 14.6 12.45 Q15.45 12.3 16.0 11.7 L16.4 11.35 16.65 10.8 16.9 9.65 Q16.9 8.85 16.55 8.3 L16.0 7.65 15.9 7.45 15.9 7.4 16.1 7.3 16.25 7.1 17.05 8.05 17.15 8.25 Q17.8 9.7 17.65 11.1 18.4 10.1 17.7 8.2 L17.65 8.0 17.2 7.3 16.55 6.6 16.7 6.4 16.75 6.4 17.05 6.65 17.55 7.25 18.0 8.15 18.2 9.35 18.2 9.6 17.9 11.25 17.7 11.65 17.2 12.4 17.05 12.55 15.7 13.55 14.05 13.8 13.3 13.75 12.45 13.55 12.35 13.5 10.9 12.55 10.8 12.5 10.55 12.15 10.4 12.0 9.9 10.8 9.85 10.65 9.8 10.15 9.8 10.05 9.75 9.6 9.75 9.45 Q9.8 8.35 10.45 7.4 L10.45 7.35 11.05 6.65 12.3 5.8 12.95 5.6 13.6 5.5 13.7 5.5 14.05 5.4 14.1 5.4 14.5 5.5 M13.1 5.85 Q13.1 6.1 13.5 6.1 L13.75 6.0 13.8 5.85 Q13.8 5.75 13.55 5.75 13.35 5.6 13.1 5.75 L13.1 5.85 M13.15 12.4 L13.0 12.4 12.8 12.3 Q11.7 11.75 11.2 10.9 L11.0 10.25 10.9 9.3 10.85 8.8 10.65 8.95 10.45 9.45 10.4 10.25 10.4 10.75 10.65 11.35 10.95 11.85 11.4 12.25 12.5 12.75 12.7 12.75 12.95 12.85 13.9 12.85 Q14.1 12.75 13.15 12.4" fill="#545151" fill-rule="evenodd" stroke="none"/>
      <path d="M15.0 5.1 L14.75 5.25 14.1 5.15 14.05 5.15 13.8 5.15 13.55 5.15 13.5 4.9 14.2 4.75 15.0 5.1 M14.05 7.0 L14.1 7.2 14.15 7.3 12.7 7.35 Q13.35 7.0 14.05 7.0 M16.75 6.15 L16.8 5.75 17.3 6.35 17.85 7.1 17.95 7.25 17.8 7.25 17.2 6.4 16.95 6.25 16.8 6.15 16.75 6.15" fill="#404a4a" fill-rule="evenodd" stroke="none"/>
      <path d="M18.2 8.1 L18.45 9.6 18.45 10.25 18.25 11.2 18.05 11.85 17.8 12.4 17.3 12.95 Q15.8 14.45 13.9 14.45 L13.7 14.45 12.45 14.3 10.8 13.35 10.35 12.85 10.2 12.75 9.7 12.0 9.65 11.95 9.4 11.1 9.4 10.95 9.35 10.65 9.3 9.95 9.3 9.75 9.3 9.7 Q9.4 8.85 9.8 8.0 10.15 7.3 10.65 6.7 L10.9 6.4 Q12.0 5.3 13.55 5.15 L13.8 5.15 14.05 5.15 14.1 5.15 14.75 5.25 14.5 5.5 14.1 5.4 14.05 5.4 13.7 5.5 13.6 5.5 12.95 5.6 12.3 5.8 11.05 6.65 10.45 7.35 10.45 7.4 Q9.8 8.35 9.75 9.45 L9.75 9.6 9.8 10.05 9.8 10.15 9.85 10.65 9.9 10.8 10.4 12.0 10.55 12.15 10.8 12.5 10.9 12.55 12.35 13.5 12.45 13.55 13.3 13.75 14.05 13.8 15.7 13.55 17.05 12.55 17.2 12.4 17.7 11.65 17.9 11.25 18.2 9.6 18.2 9.35 18.0 8.15 17.55 7.25 17.05 6.65 16.75 6.4 16.7 6.4 16.75 6.15 16.8 6.15 16.95 6.25 17.2 6.4 17.8 7.25 18.2 8.1" fill="#191919" fill-rule="evenodd" stroke="none"/>
      <path d="M19.25 7.05 L20.05 7.8 19.6 7.9 19.05 8.05 18.2 8.1 17.8 7.25 17.95 7.25 19.25 7.2 19.25 7.05 M18.65 12.35 L20.0 12.2 20.75 16.05 19.1 16.2 19.1 16.35 18.65 12.35 M14.15 7.3 L14.5 7.65 Q14.9 7.85 15.5 7.65 L15.65 7.65 15.85 7.75 15.9 7.75 16.3 8.3 12.35 8.05 12.05 8.05 11.95 8.05 12.2 7.75 12.7 7.35 14.15 7.3 M10.8 13.35 L12.45 14.3 12.35 16.5 12.35 16.25 10.8 16.1 10.75 16.1 10.8 13.35 M10.6 18.05 L12.45 18.25 12.45 18.65 12.8 21.35 11.45 21.2 11.4 21.2 10.6 18.05 M18.9 18.6 L18.9 18.2 20.45 18.05 19.6 21.25 19.55 21.3 18.45 21.45 18.9 18.6" fill="#2b2b2b" fill-rule="evenodd" stroke="none"/>
      <path d="M21.0 10.75 L18.55 11.15 18.45 10.6 18.45 10.25 18.45 9.6 18.2 8.1 19.05 8.05 19.6 7.9 21.0 10.7 21.0 10.75" fill="#b25b00" fill-rule="evenodd" stroke="none"/>
      <path d="M20.05 7.8 L20.6 8.5 21.75 10.6 21.0 10.75 21.0 10.7 19.6 7.9 20.05 7.8 M18.45 10.25 L18.45 10.6 18.55 11.15 18.25 11.2 18.45 10.25 M12.05 8.05 L12.35 8.05 16.3 8.3 Q16.65 8.85 16.65 9.6 L16.45 10.5 15.9 11.35 12.0 11.0 11.6 9.75 Q11.45 9.2 11.7 8.7 L12.05 8.05" fill="#f58e0e" fill-rule="evenodd" stroke="none"/>
      <path d="M14.0 6.75 L14.05 6.9 14.05 7.0 Q13.35 7.0 12.7 7.35 L12.2 7.75 11.95 8.05 11.7 8.7 Q11.45 9.2 11.6 9.75 L12.0 11.0 12.2 11.3 12.7 11.7 13.85 12.1 14.9 12.0 15.8 11.4 15.9 11.35 16.45 10.5 16.65 9.6 Q16.65 8.85 16.3 8.3 L15.9 7.75 15.85 7.75 15.65 7.65 15.9 7.4 15.9 7.45 16.0 7.65 16.55 8.3 Q16.9 8.85 16.9 9.65 L16.65 10.8 16.4 11.35 16.0 11.7 Q15.45 12.3 14.6 12.45 L14.05 12.5 13.15 12.4 12.75 12.25 12.0 11.7 11.45 10.95 11.15 9.85 11.15 9.65 Q11.15 8.7 11.7 8.0 L12.0 7.65 12.3 7.35 Q13.05 6.75 14.0 6.75" fill="#1c1b1b" fill-rule="evenodd" stroke="none"/>
      <path d="M21.75 10.6 L22.2 11.95 21.45 12.05 21.35 12.05 21.15 11.2 21.0 10.75 21.75 10.6 M22.65 15.75 L22.4 17.75 21.7 17.85 21.35 17.9 21.55 15.9 21.9 15.85 22.65 15.75 M21.25 21.0 L20.6 21.95 Q18.55 24.8 15.65 24.8 13.45 24.8 11.7 23.15 13.5 24.1 14.1 24.1 L15.0 24.1 Q17.45 23.75 19.2 21.95 L19.8 21.2 20.4 21.15 21.25 21.0 M10.7 21.95 L10.65 21.95 10.05 21.0 10.95 21.15 11.4 21.2 11.45 21.2 12.8 21.35 12.85 21.8 11.7 21.95 11.15 21.95 10.7 21.95 M18.55 11.15 L18.65 12.35 17.8 12.4 18.05 11.85 18.25 11.2 18.55 11.15 M12.0 11.0 L15.9 11.35 15.8 11.4 14.9 12.0 13.85 12.1 12.7 11.7 12.2 11.3 12.0 11.0 M9.65 15.9 L10.35 16.1 10.75 16.1 10.8 16.1 12.35 16.25 12.35 16.5 Q15.1 16.75 18.1 16.55 L17.05 18.75 12.45 18.65 12.45 18.25 10.6 18.05 9.8 17.9 9.5 17.85 9.65 16.3 9.65 15.9" fill="#3a3a3a" fill-rule="evenodd" stroke="none"/>
      <path d="M22.2 11.95 L23.2 11.6 Q23.8 13.45 23.55 15.55 L22.65 15.75 21.9 15.85 21.55 15.9 21.55 15.3 21.35 12.05 21.45 12.05 22.2 11.95 M22.4 17.75 L23.1 17.75 22.75 19.2 22.55 19.55 21.95 21.0 21.25 21.0 20.4 21.15 19.8 21.2 Q20.9 19.8 21.35 17.9 L21.7 17.85 22.4 17.75 M10.05 21.0 L9.65 20.8 9.5 19.5 9.45 18.5 9.45 18.35 9.5 17.85 9.8 17.9 10.6 18.05 11.4 21.2 10.95 21.15 10.05 21.0 M17.8 12.4 L18.65 12.35 18.65 12.9 Q18.65 14.9 18.1 16.55 15.1 16.75 12.35 16.5 L12.45 14.3 13.7 14.45 13.9 14.45 Q15.8 14.45 17.3 12.95 L17.8 12.4 M10.2 12.75 L10.35 12.85 10.8 13.35 10.75 16.1 10.35 16.1 9.65 15.9 9.75 15.35 10.0 15.45 9.8 15.1 9.85 14.5 10.2 12.75 M12.45 18.65 L17.05 18.75 16.55 19.4 Q15.0 21.25 12.85 21.8 L12.85 21.4 12.8 21.35 12.45 18.65" fill="#f15d10" fill-rule="evenodd" stroke="none"/>
      <path d="M20.0 12.2 L21.35 12.05 21.55 15.3 21.55 15.9 20.75 16.05 20.0 12.2 M18.65 12.35 L19.1 16.35 19.1 16.45 18.1 16.55 Q18.65 14.9 18.65 12.9 L18.65 12.35 M20.45 18.05 L20.5 18.05 21.35 17.9 Q20.9 19.8 19.8 21.2 L19.6 21.25 20.45 18.05 M12.85 21.8 Q15.0 21.25 16.55 19.4 L17.05 18.75 18.9 18.6 18.45 21.45 18.35 22.05 Q15.7 22.25 12.85 21.95 L12.85 21.8" fill="#af420a" fill-rule="evenodd" stroke="none"/>
      <path d="M11.7 23.15 L10.7 21.95 11.15 21.95 11.7 21.95 12.85 21.8 12.85 21.95 Q15.7 22.25 18.35 22.05 L18.45 21.45 19.55 21.3 19.6 21.25 19.8 21.2 19.2 21.95 Q17.45 23.75 15.0 24.1 L14.1 24.1 Q13.5 24.1 11.7 23.15 M21.0 10.75 L21.15 11.2 21.35 12.05 20.0 12.2 18.65 12.35 18.55 11.15 21.0 10.75 M19.1 16.35 L19.1 16.2 20.75 16.05 21.55 15.9 21.35 17.9 20.5 18.05 20.45 18.05 18.9 18.2 18.9 18.6 17.05 18.75 18.1 16.55 19.1 16.45 19.1 16.35" fill="#111111" fill-rule="evenodd" stroke="none"/>
      <path d="M7.75 10.95 L7.75 10.75 Q7.75 8.25 8.9 6.15 9.95 4.45 11.7 3.45 L11.7 3.5 11.95 4.3 11.85 4.45 10.85 5.8 10.05 6.75 9.65 7.25 8.9 9.05 8.6 9.8 8.3 10.7 8.1 11.15 7.75 10.95" fill="#688587" fill-rule="evenodd" stroke="none"/>
      <path d="M7.9 12.5 Q7.75 11.8 7.75 10.95 L8.1 11.15 8.3 10.7 8.6 9.8 8.9 9.05 9.65 7.25 10.05 6.75 10.85 5.8 11.85 4.45 11.95 4.3 11.7 3.5 11.7 3.45 12.75 2.95 12.75 3.3 12.95 3.4 12.95 3.45 12.4 4.15 10.65 6.7 Q10.15 7.3 9.8 8.0 9.4 8.85 9.3 9.7 L9.3 9.75 9.25 9.95 9.15 10.9 9.05 11.9 9.05 11.95 Q9.05 13.85 9.8 15.1 L10.0 15.45 9.75 15.35 8.7 14.45 Q8.15 13.65 7.9 12.5" fill="#506769" fill-rule="evenodd" stroke="none"/>
      <path d="M13.05 3.6 L13.1 3.7 13.15 3.8 13.3 4.1 13.5 4.9 13.55 5.15 Q12.0 5.3 10.9 6.4 L10.65 6.7 12.4 4.15 12.95 3.45 12.95 3.4 13.05 3.6" fill="#718485" fill-rule="evenodd" stroke="none"/>
      <path d="M13.1 5.85 L13.1 5.75 Q13.35 5.6 13.55 5.75 13.8 5.75 13.8 5.85 L13.75 6.0 13.5 6.1 Q13.1 6.1 13.1 5.85" fill="#ffffff" fill-rule="evenodd" stroke="none"/>
      <path d="M15.65 5.15 L15.65 5.25 15.55 5.4 15.4 5.6 15.3 5.85 Q15.15 6.1 15.15 6.3 14.9 7.1 16.0 6.95 L15.65 7.3 15.5 7.3 15.45 7.4 14.75 7.3 14.45 7.05 14.4 6.8 14.4 6.65 14.5 6.0 14.6 5.75 14.7 5.75 14.9 5.5 15.15 5.25 Q15.25 5.15 15.3 5.15 L15.4 5.15 15.65 5.15" fill="#6e899f" fill-rule="evenodd" stroke="none"/>
      <path d="M13.15 12.4 Q14.1 12.75 13.9 12.85 L12.95 12.85 12.7 12.75 12.5 12.75 11.4 12.25 10.95 11.85 10.65 11.35 10.4 10.75 10.4 10.25 10.45 9.45 10.65 8.95 10.85 8.8 10.9 9.3 11.0 10.25 11.2 10.9 Q11.7 11.75 12.8 12.3 L13.0 12.4 13.15 12.4" fill="#696666" fill-rule="evenodd" stroke="none"/>
      <path d="M9.25 9.95 L9.3 9.95 9.35 10.65 9.4 10.95 9.15 10.9 9.25 9.95 M9.1 11.95 L9.4 11.1 9.65 11.95 9.7 12.0 9.1 11.95" fill="#6b6b6b" fill-rule="evenodd" stroke="none"/>
      <path d="M9.65 20.8 L9.15 20.55 Q8.45 19.5 8.15 17.75 L8.9 17.75 9.5 17.85 9.45 18.35 9.45 18.5 9.5 19.5 9.65 20.8 M8.7 15.75 L7.7 15.75 7.7 15.45 7.7 15.0 7.9 12.5 Q8.15 13.65 8.7 14.45 L9.75 15.35 9.65 15.9 8.7 15.75 M9.05 11.95 L9.1 11.95 9.7 12.0 10.2 12.75 9.85 14.5 9.8 15.1 Q9.05 13.85 9.05 11.95" fill="#ffb14e" fill-rule="evenodd" stroke="none"/>
      <path d="M11.95 8.05 L12.05 8.05 11.7 8.7 11.95 8.05" fill="#ffaf4d" fill-rule="evenodd" stroke="none"/>
      <path d="M8.9 17.75 L8.7 15.75 9.65 15.9 9.65 16.3 9.5 17.85 8.9 17.75" fill="#727272" fill-rule="evenodd" stroke="none"/>
    </g>
    <g id="sprite0" transform="matrix(1.0, 0.0, 0.0, 1.0, 0.0, 0.0)">
      <use height="69.8" id="rabbit" transform="matrix(-0.1007, 0.0, 0.0, 0.1006, 9.0, 0.0)" width="89.4" xlink:href="#sprite1"/>
    </g>
    <g id="sprite1" transform="matrix(1.0, 0.0, 0.0, 1.0, 0.0, 0.0)">
      <use height="69.8" transform="matrix(1.0, 0.0, 0.0, 1.0, 0.0, 0.0)" width="89.4" xlink:href="#shape1"/>
    </g>
    <g id="shape1" transform="matrix(1.0, 0.0, 0.0, 1.0, 0.0, 0.0)">
      <path d="M43.4 61.35 Q52.75 60.5 59.6 53.55 67.3 45.75 67.3 34.75 67.3 23.7 59.6 15.9 51.85 8.1 40.8 8.1 L34.3 8.95 34.15 9.0 33.7 9.05 33.9 9.0 Q41.9 6.55 47.85 6.3 L52.45 6.35 Q63.05 7.0 71.25 13.3 81.1 21.0 81.6 32.5 82.1 43.95 72.95 52.45 63.8 61.0 50.3 61.6 L45.95 61.6 43.4 61.35" fill="#cfd4d4" fill-rule="evenodd" stroke="none"/>
      <path d="M33.7 9.05 L34.15 9.0 34.3 8.95 40.8 8.1 Q51.85 8.1 59.6 15.9 67.3 23.7 67.3 34.75 67.3 45.75 59.6 53.55 52.75 60.5 43.4 61.35 38.65 60.75 34.4 58.95 L32.0 60.0 30.2 60.65 Q27.2 61.65 24.9 61.75 21.4 61.85 19.4 60.0 17.35 58.1 17.4 54.95 17.4 52.8 18.35 50.1 L18.4 49.9 18.65 49.35 19.85 46.75 Q21.75 43.05 25.0 39.45 21.6 40.85 18.2 41.45 L17.55 41.55 17.55 41.5 17.5 41.55 15.25 41.8 10.75 41.3 Q8.55 40.6 7.2 39.0 3.9 35.2 7.0 28.5 9.45 23.25 14.7 18.7 L17.8 16.15 Q25.45 10.45 33.2 9.1 L33.7 9.05" fill="#fff0de" fill-rule="evenodd" stroke="none"/>
      <path d="M43.4 61.35 L45.95 61.6 50.3 61.6 Q63.8 61.0 72.95 52.45 82.1 43.95 81.6 32.5 81.1 21.0 71.25 13.3 63.05 7.0 52.45 6.35 L47.85 6.3 Q41.9 6.55 33.9 9.0 L33.7 9.05 33.2 9.1 Q25.45 10.45 17.8 16.15 L14.7 18.7 Q9.45 23.25 7.0 28.5 3.9 35.2 7.2 39.0 8.55 40.6 10.75 41.3 L15.25 41.8 17.5 41.55 17.55 41.55 18.2 41.45 Q21.6 40.85 25.0 39.45 21.75 43.05 19.85 46.75 L18.65 49.35 18.4 49.9 18.35 50.1 Q17.4 52.8 17.4 54.95 17.35 58.1 19.4 60.0 21.4 61.85 24.9 61.75 27.2 61.65 30.2 60.65 L32.0 60.0 34.4 58.95 Q38.65 60.75 43.4 61.35 M89.35 32.8 Q90.0 47.1 78.8 57.7 67.65 68.25 51.25 68.95 43.2 69.3 36.25 67.25 L32.0 68.7 Q21.5 71.65 15.95 66.65 10.4 61.6 13.1 51.45 L13.5 50.1 Q6.9 49.55 3.15 45.25 -2.1 39.15 1.45 29.2 5.0 19.25 15.25 11.25 25.5 3.2 36.45 1.85 L37.6 1.75 Q42.6 0.3 48.25 0.05 64.65 -0.65 76.7 8.95 88.75 18.55 89.35 32.8" fill="#818698" fill-rule="evenodd" stroke="none"/>
    </g>
    <g id="sprite2" transform="matrix(1.0, 0.0, 0.0, 1.0, 0.5, 0.5)">
      <use height="1.5" transform="matrix(1.0, 0.0, 0.0, 1.0, -0.5, -0.5)" width="1.0" xlink:href="#shape2"/>
    </g>
    <g id="shape2" transform="matrix(1.0, 0.0, 0.0, 1.0, 0.5, 0.5)">
      <path d="M0.0 0.0 L0.0 0.5" fill="none" stroke="#0c1f6b" stroke-linecap="round" stroke-linejoin="round" stroke-opacity="0.07450981" stroke-width="1.0"/>
    </g>
  </defs>
</svg>
