<?xml version="1.0" encoding="UTF-8" standalone="no"?>
<svg xmlns:xlink="http://www.w3.org/1999/xlink" height="19.45px" width="49.25px" xmlns="http://www.w3.org/2000/svg">
  <g transform="matrix(1.0, 0.0, 0.0, 1.0, 18.6, 2.15)">
    <use height="16.9" transform="matrix(1.0, 0.0, 0.0, 1.0, -18.6, -2.15)" width="48.55" xlink:href="#shape0"/>
    <use height="7.0" id="hand" transform="matrix(1.0, 0.0, 0.0, 1.0, -9.8, 6.85)" width="9.0" xlink:href="#sprite0"/>
    <use height="1.5" id="barrel" transform="matrix(1.0, 0.0, 0.0, 1.0, 29.65, 2.0)" width="1.0" xlink:href="#sprite2"/>
    <use height="7.0" id="second_hand" transform="matrix(0.9823, 0.1167, -0.1113, 0.9368, 11.95, 3.6)" width="9.0" xlink:href="#sprite0"/>
  </g>
  <defs>
    <g id="shape0" transform="matrix(1.0, 0.0, 0.0, 1.0, 18.6, 2.15)">
      <path d="M6.2 -0.15 L6.55 0.05 6.75 0.5 6.95 1.25 7.4 1.2 11.7 0.55 14.45 0.1 22.45 -1.05 22.9 -1.2 28.75 -2.15 29.4 -2.1 29.85 -1.75 29.95 -1.25 28.9 8.05 28.6 8.6 27.9 8.75 7.8 8.7 7.7 8.8 7.15 8.95 3.25 8.95 Q2.6 9.75 1.8 10.15 L1.75 10.15 Q0.45 10.85 -1.95 11.05 L-2.85 12.9 -3.0 13.1 -3.05 13.25 -3.15 13.45 -3.8 14.0 -3.75 13.9 Q-4.1 14.15 -4.75 14.4 L-5.05 14.45 -7.9 14.65 -8.0 14.65 -11.25 14.65 -16.35 14.7 -16.4 14.7 -17.5 14.75 -18.0 14.65 -18.45 14.35 -18.6 13.9 -18.5 13.4 -18.2 12.7 -17.35 10.95 -17.3 10.85 -16.8 10.05 Q-15.95 8.8 -13.85 7.05 L-13.8 7.0 -12.95 6.4 -12.65 6.3 -12.15 6.2 -9.85 6.3 Q-7.95 6.3 -6.15 5.1 L-6.6 4.65 -6.65 4.65 -7.9 3.55 -8.1 3.2 -8.1 2.85 -7.2 1.4 -6.6 0.85 -5.9 0.7 Q-5.5 0.75 -5.25 1.05 L-3.55 2.8 -3.3 2.55 Q-3.15 2.3 -2.85 2.25 L5.45 -0.2 6.05 -0.2 6.2 -0.15 M28.55 2.05 L28.9 -1.35 23.1 -0.45 23.1 -0.35 21.05 0.0 14.6 0.9 11.7 1.35 7.75 1.95 7.55 2.0 7.4 2.0 6.2 2.2 6.05 2.2 5.75 0.55 -2.5 2.95 -2.8 3.35 -3.5 4.1 -3.55 4.1 -6.05 1.55 -6.35 1.8 -7.1 3.0 -5.9 4.1 -5.3 4.65 -4.75 5.2 -4.8 5.25 -4.95 5.35 -5.3 5.6 Q-7.55 7.1 -9.9 7.1 L-12.25 6.95 -13.15 7.6 -15.95 10.45 -16.3 10.95 -16.4 11.15 -17.2 12.7 -17.55 13.75 -17.6 13.9 -16.4 13.85 -11.25 13.8 -8.0 13.8 -5.15 13.7 -4.5 13.35 -4.05 12.95 -3.8 12.6 -2.65 10.25 -1.15 10.15 Q0.35 9.9 1.2 9.45 L1.35 9.4 2.65 8.1 7.15 8.1 7.1 7.95 8.8 7.95 21.05 8.0 22.45 8.0 27.9 8.0 28.15 6.1 28.55 2.05 M0.45 8.1 L1.35 8.1 0.85 8.65 Q0.0 9.25 -1.65 9.4 L-2.25 9.45 -1.95 9.05 -1.35 8.1 -0.75 8.1 0.45 8.1" fill="#230b00" fill-rule="evenodd" stroke="none"/>
      <path d="M23.1 -0.35 L23.1 -0.45 28.9 -1.35 28.55 2.05 22.9 2.35 23.1 -0.35" fill="#ff8346" fill-rule="evenodd" stroke="none"/>
      <path d="M28.55 2.05 L28.15 6.1 22.55 6.1 22.9 2.35 28.55 2.05" fill="#b63d00" fill-rule="evenodd" stroke="none"/>
      <path d="M22.45 8.0 L21.05 8.0 21.05 6.1 8.45 6.1 8.8 7.95 7.1 7.95 6.75 6.1 6.6 5.2 6.05 2.2 6.2 2.2 7.4 2.0 7.55 2.0 7.75 1.95 7.95 3.2 21.05 2.45 21.05 0.0 23.1 -0.35 22.9 2.35 22.55 6.1 22.45 8.0 M-4.75 5.2 L-5.3 4.65 -5.9 4.1 -7.1 3.0 -6.35 1.8 -6.05 1.55 -3.55 4.1 -3.65 4.1 -4.75 5.2" fill="#622304" fill-rule="evenodd" stroke="none"/>
      <path d="M2.65 8.1 L1.35 9.4 1.2 9.45 Q0.35 9.9 -1.15 10.15 L-2.65 10.25 -2.45 9.75 -2.25 9.45 -1.65 9.4 Q0.0 9.25 0.85 8.65 L1.35 8.1 2.65 8.1 M7.75 1.95 L11.7 1.35 14.6 0.9 21.05 0.0 21.05 2.45 7.95 3.2 7.75 1.95" fill="#7b300b" fill-rule="evenodd" stroke="none"/>
      <path d="M21.05 8.0 L8.8 7.95 8.45 6.1 21.05 6.1 21.05 8.0" fill="#8a4b2c" fill-rule="evenodd" stroke="none"/>
      <path d="M28.15 6.1 L27.9 8.0 22.45 8.0 22.55 6.1 28.15 6.1" fill="#cb825d" fill-rule="evenodd" stroke="none"/>
      <path d="M-2.8 3.35 L-2.5 2.95 5.75 0.55 6.05 2.2 6.6 5.2 6.2 5.2 2.7 5.2 -1.6 5.15 -2.8 3.35" fill="#faae20" fill-rule="evenodd" stroke="none"/>
      <path d="M-3.5 4.1 L-2.8 3.35 -1.6 5.15 2.7 5.2 6.2 5.2 6.6 5.2 6.75 6.1 -0.9 6.1 0.45 8.1 -0.75 8.1 -3.5 4.1" fill="#8e5c00" fill-rule="evenodd" stroke="none"/>
      <path d="M7.1 7.95 L7.15 8.1 2.65 8.1 1.35 8.1 0.45 8.1 -0.9 6.1 6.75 6.1 7.1 7.95" fill="#d78f09" fill-rule="evenodd" stroke="none"/>
      <path d="M-16.3 10.95 L-15.95 10.45 -13.15 7.6 -12.25 6.95 -9.9 7.1 Q-7.55 7.1 -5.3 5.6 L-4.95 5.35 -4.8 5.25 -4.75 5.2 -3.65 4.1 -3.55 4.1 -3.5 4.1 -0.75 8.1 -1.35 8.1 -1.95 9.05 -2.65 8.1 -2.7 8.15 -3.25 7.45 -5.3 9.55 Q-6.9 10.9 -7.5 10.95 L-16.3 10.95" fill="#3c1f11" fill-rule="evenodd" stroke="none"/>
      <path d="M-2.65 10.25 L-3.8 12.6 -4.05 12.95 -4.5 13.35 -5.15 13.7 -8.0 13.8 -11.25 13.8 -16.4 13.85 -17.6 13.9 -17.55 13.75 -17.2 12.7 -16.4 11.15 -16.3 10.95 -7.5 10.95 Q-6.9 10.9 -5.3 9.55 L-3.25 7.45 -2.7 8.15 -2.65 8.1 -1.95 9.05 -2.25 9.45 -2.45 9.75 -2.65 10.25" fill="#694f42" fill-rule="evenodd" stroke="none"/>
    </g>
    <g id="sprite0" transform="matrix(1.0, 0.0, 0.0, 1.0, 0.0, 0.0)">
      <use height="69.8" id="rabbit" transform="matrix(-0.1007, 0.0, 0.0, 0.1006, 9.0, 0.0)" width="89.4" xlink:href="#sprite1"/>
    </g>
    <g id="sprite1" transform="matrix(1.0, 0.0, 0.0, 1.0, 0.0, 0.0)">
      <use height="69.8" transform="matrix(1.0, 0.0, 0.0, 1.0, 0.0, 0.0)" width="89.4" xlink:href="#shape1"/>
    </g>
    <g id="shape1" transform="matrix(1.0, 0.0, 0.0, 1.0, 0.0, 0.0)">
      <path d="M43.4 61.35 Q52.75 60.5 59.6 53.55 67.3 45.75 67.3 34.75 67.3 23.7 59.6 15.9 51.85 8.1 40.8 8.1 L34.3 8.95 34.15 9.0 33.7 9.05 33.9 9.0 Q41.9 6.55 47.85 6.3 L52.45 6.35 Q63.05 7.0 71.25 13.3 81.1 21.0 81.6 32.5 82.1 43.95 72.95 52.45 63.8 61.0 50.3 61.6 L45.95 61.6 43.4 61.35" fill="#cfd4d4" fill-rule="evenodd" stroke="none"/>
      <path d="M33.7 9.05 L34.15 9.0 34.3 8.95 40.8 8.1 Q51.85 8.1 59.6 15.9 67.3 23.7 67.3 34.75 67.3 45.75 59.6 53.55 52.75 60.5 43.4 61.35 38.65 60.75 34.4 58.95 L32.0 60.0 30.2 60.65 Q27.2 61.65 24.9 61.75 21.4 61.85 19.4 60.0 17.35 58.1 17.4 54.95 17.4 52.8 18.35 50.1 L18.4 49.9 18.65 49.35 19.85 46.75 Q21.75 43.05 25.0 39.45 21.6 40.85 18.2 41.45 L17.55 41.55 17.55 41.5 17.5 41.55 15.25 41.8 10.75 41.3 Q8.55 40.6 7.2 39.0 3.9 35.2 7.0 28.5 9.45 23.25 14.7 18.7 L17.8 16.15 Q25.45 10.45 33.2 9.1 L33.7 9.05" fill="#fff0de" fill-rule="evenodd" stroke="none"/>
      <path d="M43.4 61.35 L45.95 61.6 50.3 61.6 Q63.8 61.0 72.95 52.45 82.1 43.95 81.6 32.5 81.1 21.0 71.25 13.3 63.05 7.0 52.45 6.35 L47.85 6.3 Q41.9 6.55 33.9 9.0 L33.7 9.05 33.2 9.1 Q25.45 10.45 17.8 16.15 L14.7 18.7 Q9.45 23.25 7.0 28.5 3.9 35.2 7.2 39.0 8.55 40.6 10.75 41.3 L15.25 41.8 17.5 41.55 17.55 41.55 18.2 41.45 Q21.6 40.85 25.0 39.45 21.75 43.05 19.85 46.75 L18.65 49.35 18.4 49.9 18.35 50.1 Q17.4 52.8 17.4 54.95 17.35 58.1 19.4 60.0 21.4 61.85 24.9 61.75 27.2 61.65 30.2 60.65 L32.0 60.0 34.4 58.95 Q38.65 60.75 43.4 61.35 M89.35 32.8 Q90.0 47.1 78.8 57.7 67.65 68.25 51.25 68.95 43.2 69.3 36.25 67.25 L32.0 68.7 Q21.5 71.65 15.95 66.65 10.4 61.6 13.1 51.45 L13.5 50.1 Q6.9 49.55 3.15 45.25 -2.1 39.15 1.45 29.2 5.0 19.25 15.25 11.25 25.5 3.2 36.45 1.85 L37.6 1.75 Q42.6 0.3 48.25 0.05 64.65 -0.65 76.7 8.95 88.75 18.55 89.35 32.8" fill="#818698" fill-rule="evenodd" stroke="none"/>
    </g>
    <g id="sprite2" transform="matrix(1.0, 0.0, 0.0, 1.0, 0.5, 0.5)">
      <use height="1.5" transform="matrix(1.0, 0.0, 0.0, 1.0, -0.5, -0.5)" width="1.0" xlink:href="#shape2"/>
    </g>
    <g id="shape2" transform="matrix(1.0, 0.0, 0.0, 1.0, 0.5, 0.5)">
      <path d="M0.0 0.0 L0.0 0.5" fill="none" stroke="#0c1f6b" stroke-linecap="round" stroke-linejoin="round" stroke-opacity="0.14509805" stroke-width="1.0"/>
    </g>
  </defs>
</svg>
