<?xml version="1.0" encoding="UTF-8" standalone="no"?>
<svg xmlns:xlink="http://www.w3.org/1999/xlink" height="29.8px" width="50.35px" xmlns="http://www.w3.org/2000/svg">
  <g transform="matrix(1.0, 0.0, 0.0, 1.0, 11.0, 9.85)">
    <use height="27.1" transform="matrix(1.0, 0.0, 0.0, 1.0, -10.7, -9.85)" width="45.15" xlink:href="#shape0"/>
    <use height="1.5" id="barrel" transform="matrix(1.0, 0.0, 0.0, 1.0, 38.35, 0.6)" width="1.0" xlink:href="#sprite0"/>
    <use height="7.0" id="second_hand" transform="matrix(0.9892, 0.0, 0.0, 0.9434, 11.3, 9.35)" width="9.0" xlink:href="#sprite1"/>
    <use height="7.0" id="hand" transform="matrix(1.0, 0.0, 0.0, 1.0, -9.05, 9.5)" width="9.0" xlink:href="#sprite1"/>
  </g>
  <defs>
    <g id="shape0" transform="matrix(1.0, 0.0, 0.0, 1.0, 10.7, 9.85)">
      <path d="M1.9 -6.5 L1.9 -7.7 22.15 -7.7 22.25 -4.55 22.25 -3.8 22.25 -2.85 22.25 0.65 22.25 3.95 22.25 5.7 22.25 6.45 22.25 9.2 18.45 9.2 18.5 8.55 18.7 8.55 20.75 8.55 21.45 8.55 21.45 7.0 21.45 5.7 21.45 3.9 21.45 2.95 21.45 0.6 21.45 -1.35 21.45 -2.85 21.45 -3.8 21.45 -4.55 21.45 -6.8 13.35 -6.8 13.15 -6.8 13.25 -5.8 13.5 -1.55 13.75 2.4 12.85 2.3 12.55 -1.55 12.2 -6.8 9.55 -6.8 9.6 -5.9 9.9 -1.6 10.15 2.1 10.15 2.15 9.2 2.05 8.95 -1.65 8.6 -6.8 2.6 -6.8 2.6 -6.15 2.65 -5.5 1.95 -5.5 1.9 -6.5" fill="#3c0f0a" fill-rule="evenodd" stroke="none"/>
      <path d="M2.65 -5.5 L2.6 -6.15 8.2 -6.0 8.65 -1.65 6.25 -1.7 3.05 -1.8 2.95 -2.75 2.85 -3.55 2.75 -4.35 2.7 -4.65 2.65 -5.5 M9.9 -1.6 L9.6 -5.9 9.65 -5.9 11.85 -5.85 12.3 -1.55 10.0 -1.6 9.9 -1.6 M13.5 -1.55 L13.25 -5.8 13.4 -5.8 19.65 -5.65 20.0 -1.35 13.6 -1.55 13.5 -1.55" fill="#aa0a0a" fill-rule="evenodd" stroke="none"/>
      <path d="M2.75 -4.35 L2.85 -3.55 2.95 -2.75 2.25 -2.75 -0.2 -2.75 -2.75 -2.75 -2.75 -3.2 -2.75 -4.35 -0.2 -4.35 2.05 -4.35 2.75 -4.35 M27.6 -2.85 L27.6 -3.8 27.6 -4.8 32.65 -6.0 32.65 -3.45 27.6 -2.85" fill="#ffb707" fill-rule="evenodd" stroke="none"/>
      <path d="M1.95 -5.5 L2.65 -5.5 2.7 -4.65 2.75 -4.35 2.05 -4.35 -0.2 -4.35 -2.75 -4.35 -2.75 -5.5 -1.05 -5.5 -0.2 -5.5 1.95 -5.5 M27.6 -4.8 L27.6 -5.75 33.45 -7.65 33.45 -6.2 33.45 -3.8 33.45 1.3 32.65 1.25 32.65 -3.45 32.65 -6.0 27.6 -4.8" fill="#ffeb62" fill-rule="evenodd" stroke="none"/>
      <path d="M2.95 -2.75 L3.05 -1.8 3.15 -0.5 3.25 0.4 2.6 0.4 -0.2 0.3 -2.75 0.15 -2.75 -0.8 -2.75 -1.8 -2.75 -2.75 -0.2 -2.75 2.25 -2.75 2.95 -2.75 M27.6 1.0 L27.6 -2.85 32.65 -3.45 32.65 1.25 27.6 1.0" fill="#e5a300" fill-rule="evenodd" stroke="none"/>
      <path d="M10.15 2.1 L9.9 -1.6 10.0 -1.6 12.3 -1.55 12.7 2.3 11.9 2.25 10.95 2.15 10.3 2.1 10.15 2.1 M13.75 2.4 L13.5 -1.55 13.6 -1.55 20.0 -1.35 20.35 2.85 13.85 2.4 13.75 2.4 M3.05 -1.8 L6.25 -1.7 8.65 -1.65 9.1 2.0 9.0 2.0 3.4 1.55 3.25 0.4 3.15 -0.5 3.05 -1.8" fill="#700404" fill-rule="evenodd" stroke="none"/>
      <path d="M2.6 -6.15 L2.6 -6.8 8.6 -6.8 8.95 -1.65 8.65 -1.65 8.2 -6.0 2.6 -6.15 M9.6 -5.9 L9.55 -6.8 12.2 -6.8 12.55 -1.55 12.3 -1.55 11.85 -5.85 9.65 -5.9 9.6 -5.9 M13.25 -5.8 L13.15 -6.8 13.35 -6.8 21.45 -6.8 21.45 -4.55 21.45 -3.8 21.45 -2.85 21.45 -1.35 20.0 -1.35 19.65 -5.65 13.4 -5.8 13.25 -5.8" fill="#e20e0e" fill-rule="evenodd" stroke="none"/>
      <path d="M8.95 -1.65 L9.2 2.05 9.1 2.0 8.65 -1.65 8.95 -1.65 M12.55 -1.55 L12.85 2.3 12.7 2.3 12.3 -1.55 12.55 -1.55 M21.45 -1.35 L21.45 0.6 21.45 2.95 20.35 2.85 20.0 -1.35 21.45 -1.35" fill="#911111" fill-rule="evenodd" stroke="none"/>
      <path d="M-5.4 -3.2 L-5.4 -3.95 -5.4 -9.1 Q-3.2 -10.6 -0.2 -9.1 L-0.2 -6.5 1.9 -6.5 1.95 -5.5 -0.2 -5.5 -1.05 -5.5 -1.05 -6.1 -1.05 -8.5 Q-2.85 -9.55 -4.7 -8.5 L-4.7 -7.65 -4.7 -3.2 -5.4 -3.2" fill="#482514" fill-rule="evenodd" stroke="none"/>
      <path d="M26.75 -2.85 L22.3 -2.85 22.25 -2.85 22.25 -3.8 26.75 -3.8 26.75 -2.85" fill="#c6c6c6" fill-rule="evenodd" stroke="none"/>
      <path d="M22.25 -4.55 L26.75 -4.55 26.75 -3.8 22.25 -3.8 22.25 -4.55 M26.9 6.45 L26.75 6.45 22.25 6.45 22.25 5.7 22.4 5.7 26.75 5.7 26.85 5.7 26.9 6.45" fill="#3a3a3a" fill-rule="evenodd" stroke="none"/>
      <path d="M22.25 -2.85 L22.3 -2.85 26.75 -2.85 26.75 0.95 22.3 0.65 22.25 0.65 22.25 -2.85" fill="#9a9a9a" fill-rule="evenodd" stroke="none"/>
      <path d="M26.75 -4.55 L26.75 -6.35 34.45 -9.1 34.45 11.0 26.9 8.5 26.9 6.45 26.85 5.7 26.75 5.7 26.75 4.35 26.75 0.95 26.75 -2.85 26.75 -3.8 26.75 -4.55 M33.45 1.3 L33.45 -3.8 33.45 -6.2 33.45 -7.65 27.6 -5.75 27.6 -4.8 27.6 -3.8 27.6 -2.85 27.6 1.0 27.6 4.35 27.6 5.7 27.6 6.65 27.6 7.85 32.65 9.3 33.45 9.55 33.45 7.6 33.45 1.3" fill="#483314" fill-rule="evenodd" stroke="none"/>
      <path d="M33.45 1.3 L33.45 7.6 33.45 9.55 32.65 9.3 32.65 7.5 32.65 1.25 33.45 1.3" fill="#d9ab39" fill-rule="evenodd" stroke="none"/>
      <path d="M32.65 9.3 L27.6 7.85 27.6 6.65 32.65 7.5 32.65 9.3 M-2.75 5.4 L3.8 5.75 3.9 6.65 4.05 7.85 -2.75 7.85 -2.75 5.4" fill="#8c6814" fill-rule="evenodd" stroke="none"/>
      <path d="M3.25 0.4 L3.4 1.55 3.8 5.75 -2.75 5.4 -2.75 1.95 -2.75 0.15 -0.2 0.3 2.6 0.4 3.25 0.4 M27.6 6.65 L27.6 5.7 27.6 4.35 27.6 1.0 32.65 1.25 32.65 7.5 27.6 6.65" fill="#b18106" fill-rule="evenodd" stroke="none"/>
      <path d="M22.25 0.65 L22.3 0.65 26.75 0.95 26.75 4.35 22.4 3.95 22.25 3.95 22.25 0.65" fill="#727272" fill-rule="evenodd" stroke="none"/>
      <path d="M26.75 4.35 L26.75 5.7 22.4 5.7 22.25 5.7 22.25 3.95 22.4 3.95 26.75 4.35" fill="#5b5b5b" fill-rule="evenodd" stroke="none"/>
      <path d="M21.45 2.95 L21.45 3.9 21.45 5.7 21.45 7.0 21.45 8.55 20.75 8.55 18.7 8.55 18.5 8.55 17.7 8.55 14.2 8.55 14.15 8.55 14.05 6.85 14.1 6.85 16.7 6.9 20.75 7.0 20.35 2.85 21.45 2.95 M12.7 2.3 L12.85 2.3 13.15 6.0 12.7 2.3 M13.15 6.85 L13.3 8.55 13.2 8.55 10.85 8.55 10.55 8.55 10.4 6.8 10.7 6.8 13.15 6.85 M9.1 2.0 L9.2 2.05 9.5 5.7 9.1 2.0 M3.9 6.65 L9.55 6.8 9.7 8.55 4.1 8.55 4.05 7.85 3.9 6.65" fill="#660909" fill-rule="evenodd" stroke="none"/>
      <path d="M10.15 2.15 L10.15 2.1 10.3 2.1 10.95 2.15 11.9 2.25 12.7 2.3 13.15 6.0 13.15 6.85 10.7 6.8 10.4 6.8 10.15 2.15 M3.4 1.55 L9.0 2.0 9.1 2.0 9.5 5.7 9.55 6.8 3.9 6.65 3.8 5.75 3.4 1.55 M20.35 2.85 L20.75 7.0 16.7 6.9 14.1 6.85 14.05 6.85 13.75 2.4 13.85 2.4 20.35 2.85" fill="#4d0202" fill-rule="evenodd" stroke="none"/>
      <path d="M13.0 14.7 L11.65 9.8 -0.35 9.8 Q-1.0 9.9 -1.45 10.25 L-2.0 10.95 -2.2 12.05 -2.15 13.05 -2.1 13.3 -5.05 13.75 -5.15 13.5 Q-5.5 11.9 -5.3 9.1 L-4.95 6.3 Q-5.35 4.9 -6.45 2.65 -7.5 0.65 -8.25 -0.4 L-6.5 -2.5 -5.4 -2.25 -2.75 -1.8 -2.75 -0.8 -2.75 0.15 -2.75 1.95 -2.75 5.4 -2.75 7.85 4.05 7.85 4.1 8.55 9.7 8.55 9.55 6.8 9.5 5.7 9.2 2.05 10.15 2.15 10.4 6.8 10.55 8.55 10.85 8.55 13.2 8.55 13.3 8.55 13.15 6.85 13.15 6.0 12.85 2.3 13.75 2.4 14.05 6.85 14.15 8.55 14.2 8.55 17.7 8.55 16.15 14.3 13.0 14.7" fill="#191515" fill-rule="evenodd" stroke="none"/>
      <path d="M18.45 9.2 L17.95 15.8 13.2 15.8 13.0 14.7 16.15 14.3 17.7 8.55 18.5 8.55 18.45 9.2 M-8.5 14.35 L-8.55 14.0 Q-9.15 11.0 -8.3 8.1 -7.8 6.35 -8.45 5.05 -9.0 3.75 -10.7 2.55 L-8.7 -1.0 -7.5 -3.2 -5.4 -3.2 -4.7 -3.2 -4.55 -3.2 -4.3 -3.2 -2.75 -3.2 -2.75 -2.75 -2.75 -1.8 -5.4 -2.25 -6.5 -2.5 -8.25 -0.4 Q-7.5 0.65 -6.45 2.65 -5.35 4.9 -4.95 6.3 L-5.3 9.1 Q-5.5 11.9 -5.15 13.5 L-5.05 13.75 -8.5 14.35" fill="#2c2525" fill-rule="evenodd" stroke="none"/>
      <path d="M-4.7 -7.65 L-4.3 -7.5 -4.0 -7.35 -4.3 -3.2 -4.55 -3.2 -4.7 -3.2 -4.7 -7.65" fill="#aa3900" fill-rule="evenodd" stroke="none"/>
      <path d="M-4.0 -7.35 L-4.3 -7.5 -4.7 -7.65 -4.7 -8.5 Q-2.85 -9.55 -1.05 -8.5 L-1.05 -6.1 -4.0 -7.35" fill="#d04600" fill-rule="evenodd" stroke="none"/>
      <path d="M-4.3 -3.2 L-4.0 -7.35 -1.05 -6.1 -1.05 -5.5 -2.75 -5.5 -2.75 -4.35 -2.75 -3.2 -4.3 -3.2" fill="#8e3000" fill-rule="evenodd" stroke="none"/>
      <path d="M-1.55 15.3 L-1.25 15.95 -4.3 16.55 -7.6 17.25 -8.5 14.35 -5.05 13.75 -4.6 15.6 -1.55 15.3" fill="#770000" fill-rule="evenodd" stroke="none"/>
      <path d="M-2.1 13.3 L-1.55 15.3 -4.6 15.6 -5.05 13.75 -2.1 13.3" fill="#5f0000" fill-rule="evenodd" stroke="none"/>
    </g>
    <g id="sprite0" transform="matrix(1.0, 0.0, 0.0, 1.0, 0.5, 0.5)">
      <use height="1.5" transform="matrix(1.0, 0.0, 0.0, 1.0, -0.5, -0.5)" width="1.0" xlink:href="#shape1"/>
    </g>
    <g id="shape1" transform="matrix(1.0, 0.0, 0.0, 1.0, 0.5, 0.5)">
      <path d="M0.0 0.0 L0.0 0.5" fill="none" stroke="#0c1f6b" stroke-linecap="round" stroke-linejoin="round" stroke-opacity="0.0" stroke-width="1.0"/>
    </g>
    <g id="sprite1" transform="matrix(1.0, 0.0, 0.0, 1.0, 0.0, 0.0)">
      <use height="69.8" id="rabbit" transform="matrix(-0.1007, 0.0, 0.0, 0.1006, 9.0, 0.0)" width="89.4" xlink:href="#sprite2"/>
    </g>
    <g id="sprite2" transform="matrix(1.0, 0.0, 0.0, 1.0, 0.0, 0.0)">
      <use height="69.8" transform="matrix(1.0, 0.0, 0.0, 1.0, 0.0, 0.0)" width="89.4" xlink:href="#shape2"/>
    </g>
    <g id="shape2" transform="matrix(1.0, 0.0, 0.0, 1.0, 0.0, 0.0)">
      <path d="M43.4 61.35 Q52.75 60.5 59.6 53.55 67.3 45.75 67.3 34.75 67.3 23.7 59.6 15.9 51.85 8.1 40.8 8.1 L34.3 8.95 34.15 9.0 33.7 9.05 33.9 9.0 Q41.9 6.55 47.85 6.3 L52.45 6.35 Q63.05 7.0 71.25 13.3 81.1 21.0 81.6 32.5 82.1 43.95 72.95 52.45 63.8 61.0 50.3 61.6 L45.95 61.6 43.4 61.35" fill="#cfd4d4" fill-rule="evenodd" stroke="none"/>
      <path d="M33.7 9.05 L34.15 9.0 34.3 8.95 40.8 8.1 Q51.85 8.1 59.6 15.9 67.3 23.7 67.3 34.75 67.3 45.75 59.6 53.55 52.75 60.5 43.4 61.35 38.65 60.75 34.4 58.95 L32.0 60.0 30.2 60.65 Q27.2 61.65 24.9 61.75 21.4 61.85 19.4 60.0 17.35 58.1 17.4 54.95 17.4 52.8 18.35 50.1 L18.4 49.9 18.65 49.35 19.85 46.75 Q21.75 43.05 25.0 39.45 21.6 40.85 18.2 41.45 L17.55 41.55 17.55 41.5 17.5 41.55 15.25 41.8 10.75 41.3 Q8.55 40.6 7.2 39.0 3.9 35.2 7.0 28.5 9.45 23.25 14.7 18.7 L17.8 16.15 Q25.45 10.45 33.2 9.1 L33.7 9.05" fill="#fff0de" fill-rule="evenodd" stroke="none"/>
      <path d="M43.4 61.35 L45.95 61.6 50.3 61.6 Q63.8 61.0 72.95 52.45 82.1 43.95 81.6 32.5 81.1 21.0 71.25 13.3 63.05 7.0 52.45 6.35 L47.85 6.3 Q41.9 6.55 33.9 9.0 L33.7 9.05 33.2 9.1 Q25.45 10.45 17.8 16.15 L14.7 18.7 Q9.45 23.25 7.0 28.5 3.9 35.2 7.2 39.0 8.55 40.6 10.75 41.3 L15.25 41.8 17.5 41.55 17.55 41.55 18.2 41.45 Q21.6 40.85 25.0 39.45 21.75 43.05 19.85 46.75 L18.65 49.35 18.4 49.9 18.35 50.1 Q17.4 52.8 17.4 54.95 17.35 58.1 19.4 60.0 21.4 61.85 24.9 61.75 27.2 61.65 30.2 60.65 L32.0 60.0 34.4 58.95 Q38.65 60.75 43.4 61.35 M89.35 32.8 Q90.0 47.1 78.8 57.7 67.65 68.25 51.25 68.95 43.2 69.3 36.25 67.25 L32.0 68.7 Q21.5 71.65 15.95 66.65 10.4 61.6 13.1 51.45 L13.5 50.1 Q6.9 49.55 3.15 45.25 -2.1 39.15 1.45 29.2 5.0 19.25 15.25 11.25 25.5 3.2 36.45 1.85 L37.6 1.75 Q42.6 0.3 48.25 0.05 64.65 -0.65 76.7 8.95 88.75 18.55 89.35 32.8" fill="#818698" fill-rule="evenodd" stroke="none"/>
    </g>
  </defs>
</svg>
