<?xml version="1.0" encoding="UTF-8" standalone="no"?>
<svg xmlns:xlink="http://www.w3.org/1999/xlink" height="27.0px" width="17.5px" xmlns="http://www.w3.org/2000/svg">
  <g transform="matrix(1.0, 0.0, 0.0, 1.0, -1.25, 13.55)">
    <use height="27.0" transform="matrix(1.0, 0.0, 0.0, 1.0, 1.25, -13.55)" width="17.5" xlink:href="#shape0"/>
  </g>
  <defs>
    <g id="shape0" transform="matrix(1.0, 0.0, 0.0, 1.0, -1.25, 13.55)">
      <path d="M8.45 -11.7 L9.0 -9.85 5.3 -11.55 7.05 -12.3 8.35 -12.55 11.15 -12.3 Q13.25 -11.7 14.6 -9.75 16.55 -6.9 16.4 -1.85 L16.4 -1.65 16.4 1.65 16.4 1.85 Q16.4 6.9 14.5 9.65 12.45 12.75 8.35 12.45 6.95 12.35 5.3 11.45 L9.0 9.75 8.45 11.6 Q10.0 11.8 11.25 11.15 13.25 10.1 14.2 6.85 15.25 3.5 15.25 -0.25 15.2 -3.95 14.2 -7.05 13.2 -10.25 11.15 -11.25 9.45 -12.1 8.45 -11.7" fill="#f3f3f3" fill-rule="evenodd" stroke="none"/>
      <path d="M8.45 -11.7 Q9.45 -12.1 11.15 -11.25 13.2 -10.25 14.2 -7.05 15.2 -3.95 15.25 -0.25 15.25 3.5 14.2 6.85 13.25 10.1 11.25 11.15 10.0 11.8 8.45 11.6 11.25 11.1 12.6 8.45 13.95 5.75 13.75 1.05 L6.8 1.05 6.8 -0.05 13.75 -0.05 13.75 -1.15 Q13.95 -5.85 12.6 -8.55 11.25 -11.2 8.45 -11.7 M2.15 -0.05 L3.7 -0.05 3.7 1.05 2.15 1.05 2.15 -0.05 M4.65 1.05 L4.65 -0.05 5.85 -0.05 5.85 1.05 4.65 1.05" fill="#bfbfbf" fill-rule="evenodd" stroke="none"/>
      <path d="M16.4 -1.85 Q16.55 -6.9 14.6 -9.75 13.25 -11.7 11.15 -12.3 L8.35 -12.55 7.05 -12.3 5.3 -11.55 9.0 -9.85 8.45 -11.7 Q11.25 -11.2 12.6 -8.55 13.95 -5.85 13.75 -1.15 L6.8 -1.15 5.85 -1.15 4.65 -1.15 3.7 -1.15 2.15 -1.15 2.15 -0.05 2.15 1.05 3.7 1.05 4.65 1.05 5.85 1.05 6.8 1.05 13.75 1.05 Q13.95 5.75 12.6 8.45 11.25 11.1 8.45 11.6 L9.0 9.75 5.3 11.45 Q6.95 12.35 8.35 12.45 12.45 12.75 14.5 9.65 16.4 6.9 16.4 1.85 L16.4 1.65 Q16.9 1.6 17.3 1.15 17.7 0.65 17.7 -0.1 17.7 -0.8 17.3 -1.3 L16.4 -1.85 M10.05 -8.4 L3.95 -11.4 5.1 -12.3 Q6.95 -13.5 9.1 -13.55 11.4 -13.6 13.3 -12.3 L14.15 -11.7 Q17.2 -9.2 17.35 -2.65 18.7 -1.6 18.75 -0.2 18.8 1.25 17.35 2.4 17.2 9.1 14.15 11.6 11.85 13.5 9.1 13.45 6.25 13.4 3.95 11.3 L10.05 8.15 9.8 10.3 Q12.6 8.5 12.85 3.5 L12.85 2.0 1.25 2.0 1.25 -2.15 12.85 -2.15 12.85 -3.75 Q12.6 -8.55 9.8 -10.4 L10.05 -8.4" fill="#484848" fill-rule="evenodd" stroke="none"/>
      <path d="M3.7 -0.05 L3.7 -1.15 4.65 -1.15 4.65 -0.05 3.7 -0.05 M5.85 -0.05 L5.85 -1.15 6.8 -1.15 6.8 -0.05 5.85 -0.05" fill="#9f9f9f" fill-rule="evenodd" stroke="none"/>
      <path d="M3.7 -1.15 L3.7 -0.05 2.15 -0.05 2.15 -1.15 3.7 -1.15 M4.65 -0.05 L4.65 -1.15 5.85 -1.15 5.85 -0.05 4.65 -0.05 M6.8 -0.05 L6.8 -1.15 13.75 -1.15 13.75 -0.05 6.8 -0.05" fill="#e0e0e0" fill-rule="evenodd" stroke="none"/>
      <path d="M16.4 1.65 L16.4 -1.65 16.4 -1.85 17.3 -1.3 Q17.7 -0.8 17.7 -0.1 17.7 0.65 17.3 1.15 16.9 1.6 16.4 1.65" fill="#d9d9d9" fill-rule="evenodd" stroke="none"/>
      <path d="M3.7 -0.05 L4.65 -0.05 4.65 1.05 3.7 1.05 3.7 -0.05 M5.85 -0.05 L6.8 -0.05 6.8 1.05 5.85 1.05 5.85 -0.05" fill="#797979" fill-rule="evenodd" stroke="none"/>
    </g>
  </defs>
</svg>
