<?xml version="1.0" encoding="UTF-8" standalone="no"?>
<svg xmlns:xlink="http://www.w3.org/1999/xlink" height="23.6px" width="74.95px" xmlns="http://www.w3.org/2000/svg">
  <g transform="matrix(1.0, 0.0, 0.0, 1.0, 6.1, 11.75)">
    <use height="172.1" transform="matrix(0.0747, 0.0, 0.0, 0.0744, -4.45, -6.3)" width="172.1" xlink:href="#sprite0"/>
    <use height="172.1" transform="matrix(0.0725, 0.0, 0.0, 0.0722, -6.1, -6.1)" width="172.1" xlink:href="#sprite1"/>
    <use height="172.1" transform="matrix(0.0772, 0.0, 0.0, 0.0769, -2.3, -6.5)" width="172.1" xlink:href="#sprite0"/>
    <use height="172.1" transform="matrix(0.078, 0.0, 0.0, 0.0777, 0.0, -6.75)" width="172.1" xlink:href="#sprite2"/>
  </g>
  <defs>
    <g id="sprite0" transform="matrix(1.0, 0.0, 0.0, 1.0, 0.0, 0.0)">
      <use height="172.1" transform="matrix(1.0, 0.0, 0.0, 1.0, 0.0, 0.0)" width="172.1" xlink:href="#shape0"/>
    </g>
    <g id="shape0" transform="matrix(1.0, 0.0, 0.0, 1.0, 0.0, 0.0)">
      <path d="M146.9 25.2 Q172.1 50.4 172.1 86.05 172.1 121.7 146.9 146.9 121.7 172.1 86.05 172.1 50.4 172.1 25.2 146.9 0.0 121.7 0.0 86.05 0.0 50.4 25.2 25.2 50.4 0.0 86.05 0.0 121.7 0.0 146.9 25.2" fill="#f01900" fill-opacity="0.7882353" fill-rule="evenodd" stroke="none"/>
    </g>
    <g id="sprite1" transform="matrix(1.0, 0.0, 0.0, 1.0, 0.0, 0.0)">
      <use height="172.1" transform="matrix(1.0, 0.0, 0.0, 1.0, 0.0, 0.0)" width="172.1" xlink:href="#shape1"/>
    </g>
    <g id="shape1" transform="matrix(1.0, 0.0, 0.0, 1.0, 0.0, 0.0)">
      <path d="M146.9 25.2 Q172.1 50.4 172.1 86.05 172.1 121.7 146.9 146.9 121.7 172.1 86.05 172.1 50.4 172.1 25.2 146.9 0.0 121.7 0.0 86.05 0.0 50.4 25.2 25.2 50.4 0.0 86.05 0.0 121.7 0.0 146.9 25.2" fill="#e20000" fill-opacity="0.7882353" fill-rule="evenodd" stroke="none"/>
    </g>
    <g id="sprite2" transform="matrix(1.0, 0.0, 0.0, 1.0, 0.0, 0.0)">
      <use height="172.1" transform="matrix(1.0, 0.0, 0.0, 1.0, 0.0, 0.0)" width="172.1" xlink:href="#shape2"/>
    </g>
    <g id="shape2" transform="matrix(1.0, 0.0, 0.0, 1.0, 0.0, 0.0)">
      <path d="M146.9 25.2 Q172.1 50.4 172.1 86.05 172.1 121.7 146.9 146.9 121.7 172.1 86.05 172.1 50.4 172.1 25.2 146.9 0.0 121.7 0.0 86.05 0.0 50.4 25.2 25.2 50.4 0.0 86.05 0.0 121.7 0.0 146.9 25.2" fill="#fa1b00" fill-opacity="0.7882353" fill-rule="evenodd" stroke="none"/>
    </g>
  </defs>
</svg>
