<?xml version="1.0" encoding="UTF-8" standalone="no"?>
<svg xmlns:xlink="http://www.w3.org/1999/xlink" height="23.6px" width="74.95px" xmlns="http://www.w3.org/2000/svg">
  <g transform="matrix(1.0, 0.0, 0.0, 1.0, 6.1, 11.75)">
    <use height="172.1" transform="matrix(0.0747, 0.0, 0.0, 0.0744, -4.45, -6.3)" width="172.1" xlink:href="#sprite0"/>
    <use height="172.1" transform="matrix(0.0725, 0.0, 0.0, 0.0722, -6.1, -6.1)" width="172.1" xlink:href="#sprite1"/>
    <use height="172.1" transform="matrix(0.0772, 0.0, 0.0, 0.0769, -2.3, -6.5)" width="172.1" xlink:href="#sprite0"/>
    <use height="172.1" transform="matrix(0.078, 0.0, 0.0, 0.0777, 0.0, -6.75)" width="172.1" xlink:href="#sprite2"/>
    <use height="172.1" transform="matrix(0.0827, 0.0, 0.0, 0.0824, 2.3, -6.95)" width="172.1" xlink:href="#sprite3"/>
    <use height="172.1" transform="matrix(0.0856, 0.0, 0.0, 0.0852, 4.85, -7.25)" width="172.1" xlink:href="#sprite4"/>
    <use height="172.1" transform="matrix(0.0898, 0.0, 0.0, 0.0894, 7.6, -7.55)" width="172.1" xlink:href="#sprite5"/>
    <use height="172.1" transform="matrix(0.0923, 0.0, 0.0, 0.0919, 9.6, -7.8)" width="172.1" xlink:href="#sprite6"/>
  </g>
  <defs>
    <g id="sprite0" transform="matrix(1.0, 0.0, 0.0, 1.0, 0.0, 0.0)">
      <use height="172.1" transform="matrix(1.0, 0.0, 0.0, 1.0, 0.0, 0.0)" width="172.1" xlink:href="#shape0"/>
    </g>
    <g id="shape0" transform="matrix(1.0, 0.0, 0.0, 1.0, 0.0, 0.0)">
      <path d="M146.9 25.2 Q172.1 50.4 172.1 86.05 172.1 121.7 146.9 146.9 121.7 172.1 86.05 172.1 50.4 172.1 25.2 146.9 0.0 121.7 0.0 86.05 0.0 50.4 25.2 25.2 50.4 0.0 86.05 0.0 121.7 0.0 146.9 25.2" fill="#f01900" fill-opacity="0.7882353" fill-rule="evenodd" stroke="none"/>
    </g>
    <g id="sprite1" transform="matrix(1.0, 0.0, 0.0, 1.0, 0.0, 0.0)">
      <use height="172.1" transform="matrix(1.0, 0.0, 0.0, 1.0, 0.0, 0.0)" width="172.1" xlink:href="#shape1"/>
    </g>
    <g id="shape1" transform="matrix(1.0, 0.0, 0.0, 1.0, 0.0, 0.0)">
      <path d="M146.9 25.2 Q172.1 50.4 172.1 86.05 172.1 121.7 146.9 146.9 121.7 172.1 86.05 172.1 50.4 172.1 25.2 146.9 0.0 121.7 0.0 86.05 0.0 50.4 25.2 25.2 50.4 0.0 86.05 0.0 121.7 0.0 146.9 25.2" fill="#e20000" fill-opacity="0.7882353" fill-rule="evenodd" stroke="none"/>
    </g>
    <g id="sprite2" transform="matrix(1.0, 0.0, 0.0, 1.0, 0.0, 0.0)">
      <use height="172.1" transform="matrix(1.0, 0.0, 0.0, 1.0, 0.0, 0.0)" width="172.1" xlink:href="#shape2"/>
    </g>
    <g id="shape2" transform="matrix(1.0, 0.0, 0.0, 1.0, 0.0, 0.0)">
      <path d="M146.9 25.2 Q172.1 50.4 172.1 86.05 172.1 121.7 146.9 146.9 121.7 172.1 86.05 172.1 50.4 172.1 25.2 146.9 0.0 121.7 0.0 86.05 0.0 50.4 25.2 25.2 50.4 0.0 86.05 0.0 121.7 0.0 146.9 25.2" fill="#fa1b00" fill-opacity="0.7882353" fill-rule="evenodd" stroke="none"/>
    </g>
    <g id="sprite3" transform="matrix(1.0, 0.0, 0.0, 1.0, 0.0, 0.0)">
      <use height="172.1" transform="matrix(1.0, 0.0, 0.0, 1.0, 0.0, 0.0)" width="172.1" xlink:href="#shape3"/>
    </g>
    <g id="shape3" transform="matrix(1.0, 0.0, 0.0, 1.0, 0.0, 0.0)">
      <path d="M146.9 25.2 Q172.1 50.4 172.1 86.05 172.1 121.7 146.9 146.9 121.7 172.1 86.05 172.1 50.4 172.1 25.2 146.9 0.0 121.7 0.0 86.05 0.0 50.4 25.2 25.2 50.4 0.0 86.05 0.0 121.7 0.0 146.9 25.2" fill="#ff2a00" fill-opacity="0.7882353" fill-rule="evenodd" stroke="none"/>
    </g>
    <g id="sprite4" transform="matrix(1.0, 0.0, 0.0, 1.0, 0.0, 0.0)">
      <use height="172.1" transform="matrix(1.0, 0.0, 0.0, 1.0, 0.0, 0.0)" width="172.1" xlink:href="#shape4"/>
    </g>
    <g id="shape4" transform="matrix(1.0, 0.0, 0.0, 1.0, 0.0, 0.0)">
      <path d="M146.9 25.2 Q172.1 50.4 172.1 86.05 172.1 121.7 146.9 146.9 121.7 172.1 86.05 172.1 50.4 172.1 25.2 146.9 0.0 121.7 0.0 86.05 0.0 50.4 25.2 25.2 50.4 0.0 86.05 0.0 121.7 0.0 146.9 25.2" fill="#ff3800" fill-opacity="0.7882353" fill-rule="evenodd" stroke="none"/>
    </g>
    <g id="sprite5" transform="matrix(1.0, 0.0, 0.0, 1.0, 0.0, 0.0)">
      <use height="172.1" transform="matrix(1.0, 0.0, 0.0, 1.0, 0.0, 0.0)" width="172.1" xlink:href="#shape5"/>
    </g>
    <g id="shape5" transform="matrix(1.0, 0.0, 0.0, 1.0, 0.0, 0.0)">
      <path d="M146.9 25.2 Q172.1 50.4 172.1 86.05 172.1 121.7 146.9 146.9 121.7 172.1 86.05 172.1 50.4 172.1 25.2 146.9 0.0 121.7 0.0 86.05 0.0 50.4 25.2 25.2 50.4 0.0 86.05 0.0 121.7 0.0 146.9 25.2" fill="#ff4b07" fill-opacity="0.7882353" fill-rule="evenodd" stroke="none"/>
    </g>
    <g id="sprite6" transform="matrix(1.0, 0.0, 0.0, 1.0, 0.0, 0.0)">
      <use height="172.1" transform="matrix(1.0, 0.0, 0.0, 1.0, 0.0, 0.0)" width="172.1" xlink:href="#shape6"/>
    </g>
    <g id="shape6" transform="matrix(1.0, 0.0, 0.0, 1.0, 0.0, 0.0)">
      <path d="M146.9 25.2 Q172.1 50.4 172.1 86.05 172.1 121.7 146.9 146.9 121.7 172.1 86.05 172.1 50.4 172.1 25.2 146.9 0.0 121.7 0.0 86.05 0.0 50.4 25.2 25.2 50.4 0.0 86.05 0.0 121.7 0.0 146.9 25.2" fill="#ff6200" fill-opacity="0.7882353" fill-rule="evenodd" stroke="none"/>
    </g>
  </defs>
</svg>
